<svg version="1.0" width="846.667" height="1280" viewBox="0 0 635 960" xmlns="http://www.w3.org/2000/svg"><g fill="#333" style="fill:#000"><path d="M2665 8968c-33-5-67-14-75-19s-32-18-52-28c-21-10-35-21-31-24 3-4 0-8-8-8-8-1-18-2-24-4-5-1-15-3-22-3-7-1-45-35-86-76-40-40-84-77-96-81s-20-9-18-12c3-2 15 1 27 7 18 10 21 9 13-3-8-15-70-89-110-133-13-14-22-28-22-32 3-20-2-40-16-58-13-18-14-16-11 22 2 22 14 58 27 80 13 21 25 50 27 64 3 24 2 24-13-5-9-16-25-43-35-60-10-16-30-77-45-134-22-86-32-110-61-141-42-44-83-109-84-130 0-13 2-13 11 0 9 12 10 11 4-5-4-11-12-36-18-55-9-29-12-31-15-13-2 12 2 31 8 42 6 12 7 21 1 21-5 0-7 10-4 23 5 21 5 21-12 5-16-15-16-19-4-34 13-15 11-16-11-10-14 4-20 4-14-1 8-6 9-30 2-83-11-91-27-115-23-33 2 32 1 51-2 43s-10-18-16-21c-5-4-12-36-14-73-3-37-10-69-14-72-5-3-9-10-9-15 0-6 5-7 10-4 13 8 12 5-1-34-14-40-27-40-21 0 3 20 0 34-9 40-23 14-30 10-19-10 5-11 10-26 9-33 0-9-2-9-7 2-19 42-44 68-61 63-13-3-17-11-14-24 3-10 8-19 12-19s7-9 7-20-4-20-8-20-8-4-8-10c0-5 6-10 14-10 18 0 28-15 32-46 2-20 0-22-17-14-16 9-17 8-12-7 6-16 5-17-13-3-10 8-23 21-27 28-11 17-30 15-23-3 3-8 9-22 12-30 4-9 1-15-9-15s-13-8-9-25c3-20 0-25-15-25-11 0-28-7-39-16-18-15-18-15 4-9 27 8 72-18 72-41 0-12-7-14-35-8-35 6-40 1-36-32 1-7-8-14-20-17-18-5-19-8-8-20 8-8 16-13 19-12 3 2 12-1 20-6 13-9 13-10 0-8-8 1-26 1-40 0-19-1-21-4-11-10 10-7 2-12-30-20l-44-10 48 3c26 2 46 1 43-2s0-12 7-20c8-11 8-14 0-9-6 4-14 3-18-3s-10-8-15-5-11 1-15-5c-3-5-17-10-31-10-17 0-23-4-18-12s2-9-9-5c-10 4-17 2-17-4s-7-8-16-5c-13 5-14 4-6-7 9-11 5-21-18-47-35-39-38-54-9-45 18 6 20 5 10-14-7-12-19-21-29-21-15-1-15-3 3-16 20-15 20-15-3-34-13-11-24-29-26-42-8-65-20-109-32-119-16-13-19-33-3-24 6 4 5-2-3-14-7-12-16-21-21-21-4 0-6-4-2-9 6-10-27-109-51-153-8-16-12-28-8-28s-1-9-11-20c-10-12-13-20-6-20 12 0 0-27-29-64-8-11-10-16-3-13 13 8 13-30 0-50-4-6-3-14 3-18s5-12-5-21c-17-18-20-34-5-34 7 0 7-6 1-19-6-10-8-21-4-24 3-4 0-13-7-22-10-12-10-15 0-15s10-3 1-14c-8-10-9-16-2-21 7-4 5-15-7-33-16-25-16-26 1-19 17 6 23-3 10-16-5-6-8-72-3-79 1-2 3-28 4-58 2-30 4-57 6-60s5-30 7-60c5-89 7-100 14-100 6 0 21-48 24-80 1-8 5-22 8-30s8-26 10-40c3-14 15-60 27-102 12-43 20-84 17-91-3-8-40-17-103-25-57-6-101-16-106-24-13-18-4-246 9-259 6-6 9-18 5-27-5-13-7-12-13 4-14 35-10-51 6-126 15-71 61-180 76-180 4 0 11 27 15 60 4 34 9 58 13 55 3-4 18-56 32-116 20-83 23-109 13-105-8 3-14-1-14-9s5-15 10-15c6 0 10-9 10-20 0-12 5-17 13-14 9 3 22-15 38-53 13-31 47-82 75-113 28-30 49-62 47-70-4-12-3-13 5-1 6 8 15 10 22 6 10-6 9-10-4-17-19-10-23-104-5-110 7-2 12-38 13-88 1-47 7-95 14-106 9-17 8-25-3-40-13-17-16-17-25-4-8 12-10 12-10 1 0-9-8-12-26-8-16 3-22 1-16-5s27-11 48-11l39-2 3-80c2-43 8-87 13-96 5-10 9-34 9-54s9-71 19-113c11-43 22-97 26-122 11-66 49-178 78-230 14-25 37-66 51-93 31-58 109-156 210-262 98-104 106-113 106-124 0-5 7-11 15-15 8-3 15-12 15-21 0-8 5-15 10-15 6 0 10-5 10-11 0-7 11-22 24-34 20-18 25-34 27-77 1-29 6-66 11-83 12-42 36-172 54-289 8-54 16-101 18-105 2-3 7-49 11-101s10-101 15-109c4-8 6-40 3-70-3-31-1-74 5-96 5-22 6-49 2-60-7-20-19 78-21 165 0 35-2 40-9 25-25-55 1-355 45-545 26-108 31-129 85-317 17-61 36-140 41-175 6-35 13-79 16-98s16-64 30-100c13-36 38-101 54-145 17-44 37-100 46-125 25-74 63-143 92-168 22-19 84-52 97-52 12 0 1 29-12 34s-14 9-4 20c9 12 7 19-9 35-12 12-28 21-36 21s-23 21-35 47c-11 26-28 55-36 65-11 12-15 31-12 62 2 25-1 48-7 50-5 3 0 13 12 24l22 19-26 12c-25 11-25 12-8 31 13 14 15 23 7 32-14 18-10 60 6 66 10 3 12-4 7-31-6-33-5-35 14-30 28 7 63-24 59-53-2-15 10-32 41-58 23-20 47-36 52-36s14-11 19-25c8-21 16-25 50-25 22 0 39-4 38-9-3-10 4-11 32-4 11 3 20 11 20 19s-6 11-15 8c-8-4-15-2-15 4 0 5 7 13 16 16 11 4 14 13 10 31-3 13-1 36 6 50 9 21 9 28-1 35-17 10-8 52 15 74 20 20 54 21 54 1 0-23 36-36 117-42 49-4 77-11 80-20 3-7 14-13 24-13s19-6 19-14c0-16 21-26 56-26 13 0 24-4 24-10 0-5 7-10 16-10 23 0 43-29 44-62 0-37 11-63 20-48 4 7 10-6 14-28 7-44 46-85 72-75 10 4 12 0 8-12-5-13-3-16 7-13 8 3 13 11 11 17-2 11 3 13 31 15 6 1 26 15 43 32 18 18 41 35 53 39 11 3 21 10 21 14 0 3 13 14 29 24 47 28 89 65 236 212 171 172 222 228 265 291 19 27 36 51 39 54s28 34 56 70c27 36 55 71 62 78 7 8 26 30 41 50 15 21 30 39 33 42 17 14 180 243 176 246-6 6-23-11-72-74-25-32-58-60-87-74-26-13-47-27-48-31 0-12-23-34-35-33-5 1-14-9-20-21-8-19-28-31-47-29-3 1-17-9-30-20-26-24-97-64-114-64-6 0-19-9-28-19-10-11-30-21-44-23-18-2-26-10-29-28-7-49-10-51-70-48l-58 4-17 44c-9 25-17 55-17 68-1 12-5 22-11 22-5 0-10 10-10 22 0 11-11 45-25 75-14 29-23 58-20 63s1 18-4 27c-6 11-11 13-11 5 0-10-5-10-22 2-12 9-30 16-40 16s-18 7-18 15-4 15-10 15c-5 0-10-9-10-21 0-15-4-19-16-15-9 3-20 3-26 0-17-11-98-10-102 1-2 5-5 0-5-11-1-12-8-28-17-35-19-15-74-21-89-9-5 4-22 10-38 14-22 5-32 1-53-21-15-16-28-23-32-17-11 15-74 43-87 37-7-2-15 5-18 16-3 12-16 25-29 30-27 10-39 32-63 113-9 32-21 60-26 64-5 3-10 15-10 27-1 17-2 18-6 5-15-58-43 45-30 110 4 23 13 42 19 42s8 9 5 20-1 18 3 15c5-3 15 16 22 42 10 37 19 49 36 51 12 2 22 8 22 13s8 9 19 9c10 0 24 7 31 15 9 11 16 12 26 5 9-8 15-6 23 7 10 17 10 17 11 1 0-10 5-18 10-18 6 0 15-12 21-27 7-20 12-24 18-14 5 8 17 11 30 6 15-5 21-2 21 10 0 26 27 28 59 6 36-26 41-26 41-1 0 14 7 20 21 20 12 0 23 8 26 20 3 11 12 20 20 20s11-5 7-11c-4-7-2-10 5-8 7 3 12 8 11 13-3 14 23 26 46 20 14-4 23 0 27 10 4 9 17 16 31 16s31 6 38 13c7 6 20 13 28 15s19 10 23 18c5 9 16 12 28 9 12-4 19-2 19 7 0 17 67 78 85 78 7 0 20 15 30 32 48 91 55 102 55 85 0-10-5-27-11-38-9-18-8-19 8-10 41 24 53 40 59 79 4 23 9 40 13 38 12-8 39 20 43 44 2 16 9 24 19 22 11-1 16 6 16 28 0 39 53 141 76 148 14 4 15 7 5 19s-9 17 5 24c9 6 17 19 17 29 0 11 4 20 9 20s12 11 15 25c4 14 11 25 16 25 6 0 10 9 10 20 0 20-15 28-22 11-1-5-14-4-28 2-20 8-22 11-7 14 20 5 23 23 3 23-8 0-16-7-20-15-6-17-26-20-26-4 0 6-9 24-20 39-13 18-16 31-10 35 5 3 10 2 10-3 0-11 60-35 67-28 3 2-7 12-21 21-14 10-26 24-26 31 0 17 12 18 28 2 9-9 12-9 12 0 0 6-8 16-17 22-14 9-11 10 18 5 28-4 38-2 43 11 8 21 8 24-5 24-5 0-7-5-3-11 12-20-69 0-88 22-17 20-38 26-38 10 0-5-8-8-17-7-12 1-17-5-15-16 2-10-2-18-8-18-9 0-11 6-14 43-1 16-29 45-39 40-4-2 0-14 8-26 17-24 20-41 6-33-14 9-36-25-33-50 2-17-2-24-12-24-9 0-16-4-16-10 0-5 6-7 13-4 8 3 20-2 27-11 10-13 9-15-7-15-12 0-19-8-20-20s4-20 15-20c13 0 13-2-4-14-13-10-23-11-31-5-8 7-15 4-23-11-6-12-9-24-6-27 3-4 1-12-5-19-8-10-15-10-29-1-26 16-37 1-17-21 21-23 21-32 2-32-8 0-15-4-15-10 0-5 5-10 11-10 22 0 1-25-22-26-64-3-62-2-54-40 5-27 3-34-6-28-9 5-10 2-6-9 9-24-2-47-23-47-17 0-53 36-63 63-2 7-8 8-13 4s-4-11 2-15c26-16 25-50-1-70-14-11-25-24-25-30 0-5-7-13-15-16-12-4-14-10-5-25 7-13 7-22 0-26-5-3-10 3-10 15s-4 18-10 15-10 4-10 16c0 29-7 21-14-15-5-30-21-46-43-46-13 0-17 17-14 60 1 24 1 24-14 6-8-11-15-23-15-28 0-4-8-4-17-1-13 5-15 3-9-13 16-37 18-54 9-54-6 0-15 15-21 33l-11 32 2-32c2-18 0-30-5-27-4 3-8 16-8 29 0 18-4 23-15 19-10-4-15 0-16 12-1 11-5 1-8-20-7-44-29-60-38-27-9 35-26 24-19-11 4-24 3-29-4-18-5 8-10 35-11 60-2 34-3 38-6 14-3-26-8-31-33-31-20 0-32 7-42 26-7 14-17 29-23 33-15 11-26-2-20-23 4-11 2-19-5-19-26 0-42-30-36-65 6-28 4-35-9-35-21 0-19-13 5-30 11-8 20-21 20-30-1-12-3-11-11 3s-14 16-25 6c-11-9-14-8-15 7 0 11-3 14-6 7-9-23-29-14-42 20-15 37-61 78-61 53 0-8 4-26 9-39 8-21 6-26-9-30-11-3-20-16-22-33-3-28-3-29-16-7-14 25-6 54 13 47 21-9 15 68-7 84-10 7-18 20-18 28s-5 14-11 14c-7 0-8-7-4-18 10-24 14-107 6-120-12-19-49-3-44 19 4 12-8 31-36 59-23 22-41 45-41 50 0 6-7 10-15 10s-15 8-15 18c0 12-6 9-21-13l-21-30 5 28c2 15 2 25-1 22-8-8-34 34-27 45 9 14-5 60-18 57-6-1-11 4-12 12 0 21-20 24-39 6-21-21-36-11-36 26 0 33-15 39-25 9-3-11-11-20-16-20-8 0-6 28 6 67 8 24-15 24-24 0-9-23-29-37-53-37-7 0-7 4 0 13 5 6 9 27 7 45-1 21 3 32 12 32 8 0 13-12 13-32 1-28 2-30 11-15 6 10 9 23 6 30-2 6 2 18 10 25 7 7 13 17 13 21s-29 31-65 60-65 60-65 68c0 10-6 12-20 8s-20-2-20 8c0 8-9 17-21 20-11 3-19 11-18 19 2 14-6 42-23 72-14 26-19 108-7 122 5 6 4 21-4 37-9 21-19 27-44 27-17 0-35-4-38-10-8-12-35-13-35-1 0 5 9 19 19 32 19 23 20 23 34 5 12-17 14-17 20-3 4 10 12 14 22 11 11-5 18 0 21 13 5 18 9 19 29 9 14-6 35-30 47-53l23-41 39 19c22 10 42 16 45 13 3-4 0-9-6-11-20-7-15-26 14-50 17-15 34-21 47-17 14 3 17 2 8-4-7-5-10-16-6-26 5-13 14-15 39-10 25 4 34 2 39-12 8-20-2-34-12-17-5 7-11 7-20-3-7-8-9-15-5-15 4-1 13-2 19-3 6 0 18-9 28-19 10-9 24-17 32-17s13-4 10-9 9-8 27-6c17 1 38-2 45-8 9-7 16-7 24 1 15 15 65 16 70 2 4-13 184-40 265-40 80 0 116 13 108 39-5 16 5 24 52 48 42 20 59 34 61 51 5 31-14 28-26-5-10-26-10-26-11-5-1 36-41 43-228 45-95 1-173 6-173 11 0 4-9 6-20 3-12-3-33 1-48 9-15 7-35 11-44 8-10-3-28 2-40 10-12 9-30 16-38 16-9 0-25 6-35 14-16 11-16 15-4 28 12 14 16 14 29-2 21-24 55-40 82-39 15 0 18 3 8 6-8 4-21 13-29 21-12 12-12 15 0 23 19 12 31 11 53-6 26-20 31-19 58 9 36 39 72 43 99 12 28-32 52-33 72-3 15 21 16 21 15 2-3-46 2-55 29-55 25 0 25 1 10 18-20 22-22 40-4 39 57-2 77 4 77 23 0 13 7 20 19 20 11 0 23 5 27 11 4 7 0 9-14 5-15-5-24-1-32 14-14 27-7 37 30 42 34 5 46-5 53-42 4-23 4-22 6 5 2 42 17 63 32 48 9-9 15-8 26 3 8 8 19 11 25 8 6-4 13-1 17 5 6 8 15 9 34 2 18-7 28-7 33 0 4 6 13 4 25-7 17-15 19-15 25-1 4 12 11 14 23 8 9-5 26-9 36-8 13 1 21-5 23-19l3-21 57 23c31 13 62 24 68 24s17 6 23 14c16 19 101 14 116-8 17-23 95-18 95 6 0 10-7 21-15 24-15 6-16 29-2 51 4 7 15 9 24 6 13-5 15 0 11 31-2 23 0 35 6 33s10-11 8-21c-2-9 2-16 9-16 6 0 9-7 5-15-4-11 1-15 19-15 16 0 25 6 25 15 0 8 4 15 9 15s11-7 15-15c7-18 33-20 39-2 3 9 7 9 18 0 13-10 15-6 16 28 1 22 9 46 17 55 28 28 24 71-9 100-13 12-21 25-17 29s-3 4-16 1c-13-5-35-1-54 9-30 15-34 15-45-1-7-10-14-16-16-13-1 2-9 16-16 31-12 23-17 25-39 17-20-8-28-6-34 5-12 21-75 49-94 42-8-3-24-1-34 4-16 9-21 6-26-15-8-33-16-32-32 5-13 29-32 41-32 20 0-5-4-10-10-10-5 0-10 7-10 15s-3 15-7 15c-13-1-50-34-56-50-3-10-8-6-16 13-14 35-6 50 22 42 21-6 21-5-2 15l-25 21-12-28-11-28-8 28c-4 15-5 41-1 57 3 17 1 30-4 30-15 0-38-40-33-59 3-11-1-18-11-18s-16 9-16 24c0 13 5 23 10 23 19 0 10 29-11 35-25 8-21 37 8 50 21 9 39 58 27 76-3 5-17 9-32 9-22 1-24 2-10 10 26 16 15 45-18 48-22 2-44-8-89-44-33-26-51-44-40-41s30 8 42 12c12 3 25 15 28 26 4 10 13 19 22 19 12 0 14-7 9-32-4-18-7-40-7-50 0-9-9-18-20-21s-23-15-26-26c-5-21-13-25-47-21-10 1-15-3-12-8 4-6-2-8-14-5-11 3-20 0-20-6s5-11 10-11c6 0 10-8 10-17 0-15-4-13-20 7-20 24-21 25-35 6-12-16-18-17-27-8-7 7-39 12-75 12-60 0-113 15-113 32 0 4-8 8-17 8-10 0-29 9-43 20l-25 19 28 10c32 12 37 26 6 18-12-3-32-1-46 4-21 8-23 12-13 24s9 16-4 21c-9 3-16 14-16 23 0 23-31 47-57 43-13-2-23 1-23 7s-13 17-30 26c-44 23-149 18-134-6 3-5-7-14-21-19-31-12-85-13-85-2 0 4-10 12-22 17-20 9-23 16-21 66 2 38 11 71 28 100 29 51 78 109 93 109 19 0 47 55 48 96 1 32 12 57 46 105 54 76 108 174 108 195 0 8 4 13 9 10 5-4 13 8 16 26 4 18 11 38 15 43 4 6 11 21 15 35 11 36 43 103 58 120 52 61 170 78 230 34 25-18 97-148 97-176 0-27 89-206 143-288 30-47 59-98 62-113 4-15 11-27 16-27s9-10 9-23c0-12 9-28 21-35 29-19 33-10 7 18-15 16-18 25-10 28 7 2 9 9 5 15s-1 8 8 4c166-72 294-102 469-113 114-6 324 7 425 27 154 31 266 106 318 212 26 54 76 215 97 315 11 50 30 72 30 33 0-10 6-21 14-24s16-21 19-39c3-27 4-25 5 12 1 25-5 56-13 70-18 31-18 41-2 37 7-1 11 7 10 18l-2 20 15-20c8-11 12-30 9-42-4-17-2-21 10-17 18 7 14 27-17 87-21 42-15 64 8 33 15-22 19-10 4 14-6 10-3 25 10 47 26 44 40 242 19 260-8 6-48 18-89 25-61 12-75 18-77 34-2 14-1 15 4 4 4-9 15 28 24 85 10 55 25 132 34 170 9 39 18 98 19 132 2 35 8 68 13 75 6 7 11 32 11 56 0 23 1 43 2 45 7 9 6 68-1 73-5 3-5 13 1 23 6 12 6 39-1 77-6 33-13 75-16 94-2 19-6 49-8 65-2 17-4 30-5 30-2 0-4 11-5 25-2 14-10 52-18 85s-14 76-12 95c1 19-2 40-7 47s-5 13 0 17c6 3 8 33 6 67-3 43-1 59 7 54 8-6 8-2 0 14-7 11-8 21-3 21 23 0 20 43-4 65-21 20-22 23-6 18 22-5 37 11 26 29-12 19-12 47 0 45 17-3 6 54-15 85-11 15-29 30-40 33-20 7-20 7-2 21 11 8 13 14 6 15s-17 2-22 3c-24 3-21 16 3 16 16 0 25 4 21 10-3 6-20 10-36 10-25 0-28 2-17 14 8 8 17 11 24 5 6-5 18-3 29 5 18 13 18 14-1 20-10 3-22 5-25 3-3-1-13 6-22 15-19 18-13 48 10 48 8 0 11 5 8 10-3 6-27 10-52 10h-46l24 19c14 10 36 21 49 24l25 4-25 2c-20 1-22 3-10 11 13 9 13 10 0 10-9 1-5 6 10 15l25 14-30 1-30 1 27 15c30 16 38 30 12 20-9-3-12-2-8 5 3 6 14 9 23 6 9-2 23 3 30 11 18 19-3 34-41 29-15-2-25 0-22 5 3 4 11 8 18 8s21 9 31 20c18 20 18 20-11 6-16-7-47-16-69-19l-40-5 46 21c27 13 44 27 42 35-3 6 0 12 5 12 17 0 22 28 6 34-8 3-12 2-9-3s1-12-4-15-12 1-15 9c-3 9 1 18 8 21 8 3 17 12 20 20 4 11 2 12-14 4-22-12-33-13-27-2 3 4-1 13-9 20s-14 8-14 2c0-5-7-10-16-10-14 0-14 2 1 16 19 19 16 49-5 49-11 0-14 9-12 31 2 18-3 38-12 46-8 9-18 27-21 40-5 20-11 24-31 20-17-3-32 2-45 17-11 11-27 21-36 21-13 0-14 7-9 43 10 58 26 71 27 22 1-22 0-47-1-55-1-11 1-12 10-4 6 6 12 48 13 95 1 74-2 89-24 124-14 22-28 48-32 58s-11 15-17 12c-5-3-7 0-4 8s-2 20-10 27c-9 7-13 16-10 21s-1 9-10 9c-8 0-25 17-37 38-13 20-38 51-55 69-18 17-37 48-44 68-7 22-25 45-46 58-18 12-34 29-34 38 0 21-47 62-96 83-64 28-185 12-284-38-25-12-50-21-57-19-6 2-15-1-19-8-5-8-3-9 6-4 8 5 11 4 6-3-8-13-56 5-89 33-35 30-156 90-247 123-118 43-192 54-365 57-82 2-157 4-165 4s-38-1-67-3c-32-2-51 0-50 6 2 11-42 19-57 10-5-3-1-9 10-13 12-5-3-8-41-8-33-1-85-7-115-15s-59-12-64-9c-5 4-6 1-2-5 5-8-1-12-17-12-14 0-30-7-37-15-14-17-30-20-30-4 0 5 5 7 10 4 6-3 10 0 10 7 0 18 100 56 175 68 53 8 55 9 13 7-55-2-54 9 2 18 22 4 42 11 46 16 3 5 4 8 2 8-2-1-30-6-63-11zm-216-111c-2-1-14-11-26-21-13-11-23-16-23-13 0 10 31 37 42 37 6 0 9-1 7-3zm11-24c0-5-12-14-28-20l-27-13 24 20c25 22 31 24 31 13zm953-10c-7-2-19-2-25 0-7 3-2 5 12 5s19-2 13-5zm-918-68c-16-14-33-25-36-25s-11-10-18-23-19-24-26-24c-30 0 15 51 70 80 42 23 45 20 10-8zm114 21c-2-2-15-9-29-15-24-11-24-11-6 3 16 13 49 24 35 12zm1591-97c0-5-16 1-36 13-26 15-32 23-22 29 12 8 58-25 58-42zm-71 10c16-11 15-14-20-46-33-30-39-32-63-22-29 14-34 29-10 29 8 0 13 4 9 9-6 11 33 41 52 41 7 0 22-5 32-11zm-161-19c-13-20-28-27-28-12 0 10 22 32 32 32 5 0 3-9-4-20zm142-64c0-2-7-7-16-10-8-3-12-2-9 4 6 10 25 14 25 6zm-2094-365c-27-53-42-67-31-28 8 25 48 88 53 82 2-1-8-26-22-54zm2710-460c-6-9-46-22-46-15 0 3 10 9 23 14 29 11 29 11 23 1zm-1697-254c12-15 12-17-3-11-9 3-16 13-16 22 0 8 1 13 3 11 1-2 9-12 16-22zm-964-7c9-10 20-18 24-17 3 1 7-2 8-7 1-9 23-26 35-26 4 0 5 7 2 15-4 8-1 15 4 15 6 0 9-9 7-19-4-22 12-37 35-35 8 1 23 2 33 3 9 0 17 8 17 16s5 15 11 15 8 7 5 15c-5 14-1 13 24-2 16-9 25-20 20-23s6-6 25-6c22 0 35 5 35 13 0 16-1 16 46-2l39-16-22 20c-32 27-29 34 7 16 39-20 47-19 26 4-17 19-16 19 18 7 20-7 39-15 42-19 11-11 26-8 19 3-8 13 1 13 25 0 16-9 18-8 13 6-5 15-3 14 22-2 27-18 28-18 21 3l-7 22 43-22c24-12 53-22 65-22 18-1 20 2 12 17-5 10-15 18-21 18s-9 2-6 5 18-1 34-10c38-20 51-19 66 4 6 10 17 17 24 14 6-2 15 0 19 6 10 16 51 13 66-5 19-23 52-34 61-21 5 8 16 3 34-13l28-25-23 33c-21 30-17 44 6 21 12-12 63-20 63-9 0 15 33 20 48 8 13-11 15-11 8 2-4 9-1 8 7-2s19-18 26-18c6 0 11-9 11-21 0-11 4-18 9-15 5 4 41 8 80 11 52 4 71 2 71-7 0-6 6-3 14 8 14 18 15 18 21 2 8-21 41-24 48-5 3 6 6 1 6-13 1-17 4-21 9-12 7 10 18 8 51-10 36-19 43-20 51-8 7 12 12 12 21 3s16-10 26-1c21 17 83 19 90 2 3-8 9-11 15-8 5 3 4 12-4 22-11 13-11 14 2 10 8-2 20-14 25-25 10-20 11-20 23 5 7 14 12 32 12 40 0 11 2 11 15 0 42-38 45-39 45-23 0 8 5 15 10 15 6 0 10-6 10-14 0-11 15-14 70-12 39 1 65-1 58-5s-9-11-5-16c4-4 17-1 29 6 18 11 23 11 33-3 7-9 22-16 34-16 11 0 21-5 21-11s7-8 16-5c9 4 28-1 41-10 14-8 31-13 38-10 9 3 12 0 9-8-4-10 8-16 38-20 29-5 55-18 81-42 20-19 37-38 37-42 0-13 61-62 77-62 8 0 17-9 20-20s9-20 14-20c4 0 31-28 60-62 28-35 62-75 75-90 13-16 22-28 19-28s6-12 20-27 25-34 25-41 11-30 25-53c14-22 23-44 20-49s0-12 5-15c16-10 60-110 60-135 0-11 7-23 15-26 19-8 20-24 1-24-11 0-12-5-3-25 7-14 15-25 20-25 4 0 7-11 7-25s5-25 12-25c9 0 9-3 1-11-9-9-8-15 3-26 8-9 12-24 8-37-3-14 1-29 10-39 12-12 13-17 3-21-9-5-9-7 1-12 17-8 15-24-3-24-11 0-14-7-10-22 2-13 6-36 9-53 2-16 8-41 13-55 12-32 8-180-6-223-6-17-13-45-15-62-5-33-19-107-35-176-5-24-13-61-16-82-4-27-10-37-20-33-8 2-51 10-97 16-71 10-86 15-105 38-11 15-19 31-16 36 4 5 1 6-6 2-13-8-44 12-36 24 2 4-11 6-30 4-19-1-35 1-35 4 0 9-50 32-69 32-8 0-12 3-8 6 8 9-39 47-90 73-28 14-52 19-68 15-14-3-32-1-40 6-8 6-19 9-25 5s-17 0-23 8c-14 18-63 35-53 18 10-15-17-14-32 1-9 9-12 9-12-1 0-27-23-38-50-23l-25 14 28-6c15-4 27-2 27 3 0 16-14 19-40 8-14-5-33-9-42-8-10 1-18-2-18-8s6-8 14-5 17 1 21-5c8-14-48-15-93-2-20 6-32 6-32 0 0-5 7-9 15-9s15-4 15-10c0-5-11-10-25-10s-25 3-25 8c0 4-36 8-80 8-74 2-104-8-62-19 9-3-2-4-25-2-26 2-43 0-43-7 0-5-7-7-16-4-9 4-23 1-31-5-10-9-17-9-25-1-17 17-33 15-19-2 9-10 9-16 1-21-15-9-60 3-60 15 0 6-5 10-11 10-5 0-7-5-4-10 10-16-13-38-46-45-22-5-29-11-25-22 5-11 2-13-10-9-13 5-15 2-11-14 4-17 3-19-8-10-8 7-23 9-35 5-15-5-19-12-14-31 7-26-5-31-24-12-9 9-12 8-12-5 0-9 5-17 10-17 19 0 10-17-16-29l-27-12 21-19c12-11 31-20 44-20 38-1-3-20-54-25-133-16-178-17-178-6 0 6-8 11-19 11-14 0-17 6-13 25 3 21 0 25-18 25-16 0-20 4-16 16 4 11-1 18-14 21-21 6-28 23-9 23 5 0 7 5 4 11-4 6-13 8-21 5s-14 1-14 10c0 8-7 17-15 20-8 4-15 10-15 16 0 13-26 38-39 38-6 0-11 6-11 14 0 9-18 16-55 21-38 4-55 11-55 21 0 17 12 18 28 2 8-8 12-8 12-1 0 17-28 36-41 28-6-4-15-1-20 6-6 10-11 11-16 3-11-15-109-12-105 4 2 11-18 16-55 15-16-1-17 14-1 19 7 3 5 7-6 11-9 4-15 3-11-2 3-5-4-12-15-16-23-7-60 2-60 16 0 5-18 9-40 9-33 0-40 4-40 19 0 11-9 21-22 25-33 8-38 7-35-6 1-7-9-14-23-16-41-6-48-22-9-23l34-1-39-9c-29-7-42-6-47 3-6 9-11 9-22 0-8-7-25-12-38-11s-39-4-57-10c-28-8-33-8-28 4 6 16-14 20-29 6-17-14-128-32-138-22-6 6-19 6-33 1-13-5-32-7-41-4-13 4-14 3-5-3 11-8 11-12 0-20-21-17-74-42-99-47-54-10-121-50-97-58 8-3 4-12-10-26-13-13-28-20-33-16-6 4-14 2-18-3-3-5-19-6-36-2-25 6-26 7-6 8 19 1 21 3 11 16-10 12-8 20 9 41 12 15 21 37 21 51 0 20-3 22-19 13-22-11-38-13-28-3 4 3 2 12-4 19-9 10-7 15 5 20 9 3 16 17 16 30 0 26-10 30-27 13-16-16-56 66-43 91 16 31 12 32-17 6-30-28-40-28-24 1 30 56 38 81 29 98-6 9-8 25-5 36 4 16 1 19-13 14-15-5-21 0-26 20-3 14-1 31 5 39 9 10 7 15-7 18-21 6-40-12-34-32 3-13 2-13-7 0-7 10-6 19 1 28 9 10 8 16-3 24s-10 9 4 4c15-5 17-2 12 15-5 16-4 19 6 14 9-6 11-3 6 8-3 10-2 17 3 17 20 0 9 19-20 36-21 13-26 20-17 26s9 8-2 8-11 3-1 15c7 8 9 15 4 15-4 0-3 5 4 12 18 18 14 30-7 23-17-5-19-2-17 20 2 15 9 31 17 37 11 7 11 11 2 15-19 7-16 33 5 50 15 13 15 14-8 8l-25-6 25 21c19 15 20 19 6 13-16-5-18-3-12 13 5 10 9 25 9 32 0 6 5 12 10 12s4 7-3 15c-8 9-8 15-2 15s9 13 7 30 0 30 5 30 7 7 4 15c-4 8-1 15 5 15s8 7 5 15c-4 9 0 15 7 15 11 0 11 2 1 9-10 6-10 10 3 21 8 7 15 19 15 27 0 16 70 138 94 166 9 9 16 21 16 27 0 5 8 14 18 19 9 6 14 11 10 11s25 34 65 75c39 41 87 91 105 110s36 35 40 35 14 9 22 20 22 20 32 20c12 0 15 5 11 16-5 14-1 16 24 12 26-3 29-1 25 15-4 17 0 19 40 16 39-4 44-2 40 14-6 24 14 21 65-8 23-14 43-22 43-17s-12 15-27 23c-43 22-55 36-38 42 7 3 15 3 17-1 6-14 69-54 75-48 9 9-54 66-74 66-9 0-14 3-10 6 11 11 67-7 67-23 0-10 6-14 19-10 15 4 19 0 16-14-2-11 2-19 8-19 7 0 23-3 36-7 17-4 22-3 17 5-4 7-17 12-29 12-17 0-19 2-7 10 12 7 12 12-4 29-11 12-25 21-32 21s-18 9-24 20c-14 26 2 26 25 0zm441-7c-6-6-36 9-36 18 0 5 9 4 20-3 10-7 18-14 16-15zm451 1c-7-7-37 7-37 17 0 6 9 5 21-1 11-7 19-14 16-16zm-276-11c13-15 12-15-11-3-34 17-36 20-18 20 9 0 22-7 29-17zm2024-3c-3-5-14-10-23-10-15 0-15 2-2 10 20 13 33 13 25 0zm-975-40c0-5-4-10-10-10-5 0-10 5-10 10 0 6 5 10 10 10 6 0 10-4 10-10zm-160-10c0-5-4-10-10-10-5 0-10 5-10 10 0 6 5 10 10 10 6 0 10-4 10-10zm-1673-16c-3-3-12-4-19-1-8 3-5 6 6 6 11 1 17-2 13-5zm2963-268c0-2-9-6-20-9s-20-1-20 4 9 9 20 9 20-2 20-4zm-3512-825c11-6 10-10-4-15-9-3-19-4-22-1s1 5 9 6c8 0 6 4-6 9-13 6-15 9-5 9 8 0 21-3 28-8zm965-438c-7-2-21-2-30 0-10 3-4 5 12 5 17 0 24-2 18-5zm1732-33c10-16-12-12-29 6-9 8-16 18-16 20 0 7 38-15 45-26zm-2192-7c-7-2-19-2-25 0-7 3-2 5 12 5s19-2 13-5zm84 1c-3-3-12-4-19-1-8 3-5 6 6 6 11 1 17-2 13-5zm683-14c0-5-7-10-16-10-8 0-12 5-9 10 3 6 10 10 16 10 5 0 9-4 9-10zm-858-40c-18-11-39-20-47-20s-33-7-55-16c-23-9-43-14-46-11-9 9 53 37 83 37 15 1 39 7 53 15 38 22 49 18 12-5zm-375-32c-3-8-6-5-6 6-1 11 2 17 5 13 3-3 4-12 1-19zm13-33c0-8-2-15-4-15s-6 7-10 15c-3 8-1 15 4 15 6 0 10-7 10-15zm279 10c-3-2-23-12-44-21-34-14-37-14-26-1 11 14 27 20 65 26 5 0 7-1 5-4zm1236-115c3-5 1-10-4-10-6 0-11 5-11 10 0 6 2 10 4 10 3 0 8-4 11-10zm-1410-50c-3-5-11-10-16-10-6 0-7 5-4 10 3 6 11 10 16 10 6 0 7-4 4-10zm2645-20c0-5 16-12 35-16 47-8 44-21-7-34-24-6-49-13-56-16-8-2-19-1-25 3-18 11-57 12-57 2 0-6-5-7-12-2-14 8-19 9-80 12-27 1-38 6-38 16 0 11-11 15-37 15-20 0-34 3-30 6 19 19 307 33 307 14zm417-16c-3-3-12-4-19-1-8 3-5 6 6 6 11 1 17-2 13-5zm89-23c41-19 76-52 41-38-20 8-22-4-4-22 10-11 10-13 0-7-7 4-13 2-13-3 0-6 5-11 11-11 7 0 9-9 6-22s1-32 9-43c15-19 15-19 9 7-7 26-6 27 19 15 25-11 26-16 26-93 0-144-34-355-73-449-11-27-34-70-51-95-21-31-24-40-10-30 10 8 24 22 31 30s13 12 13 8c0-14-73-89-99-103-68-34-131-47-266-53-425-20-632 22-756 154-87 93-209 367-209 470 0 27 4 34 20 34 15 0 19 6 17 23-2 20 3 22 43 23 73 2 80 3 80 19 0 8 2 15 4 15s12 3 21 6c15 6 16 4 3-17-7-13-19-29-27-35-21-17-3-37 28-30 14 3 20 3 14 0-23-10-14-33 15-40 55-12 57-15 17-30-22-7-49-14-60-14-15 0-17-2-6-9 10-6 12-19 8-41-6-28-5-30 9-16 20 21 22 20 69-9 43-26 60-31 50-15-3 6-2 10 4 10 5 0 12 8 15 18s4 8 3-7c-3-35 26-49 60-30 16 9 47 22 71 29 25 8 38 16 31 21-18 11 25 21 55 13 29-7 31-2 16 27-9 17-7 19 18 19 15 0 33 5 39 11 14 14 59 7 55-9-1-6 5-12 13-12s15 3 15 8c0 4 13 13 30 20 26 12 32 11 57-6 15-11 46-23 68-27s43-11 46-16c8-14 39 0 39 18 0 10 6 12 20 8 11-3 20-2 20 3 0 6-5 12-12 14-8 3-8 9-2 19 5 8 9 36 9 64 1 44 4 50 25 55 33 8 35 25 6 55-14 14-25 29-25 33s-10 9-22 12-24 11-26 17c-7 19 42 26 81 13 25-8 41-8 55-1 25 14 88 14 96 1 4-7-8-8-36-4-31 5-40 4-35-4 4-7 22-12 40-12 17 0 38-6 44-12 9-9 15-10 20-2 7 12 47 12 58 1 11-10 24-8 24 3 0 6-7 10-15 10-21 0-19 18 5 32 18 12 18 13-8 30-23 15-24 18-7 18 11 0 39-9 61-19zm-407-29c-13-21-89-27-89-6 0 9 10 11 37 7 26-4 34-3 29 5s0 12 13 12c18 0 19-3 10-18zm-261-15c6 0 12-5 12-10s-10-7-22-3c-13 3-31 6-40 6-10 0-18 5-18 11 0 7 10 9 28 4 15-4 33-8 40-8zm66-22c11-8 18-17 15-19-7-7-49 13-49 24 0 14 11 12 34-5zm-620-19c-10-8-21-12-23-10-3 2 4 11 15 18 10 8 21 12 23 10 3-2-4-11-15-18zm-2018-18c-1-20-9-39-20-47-14-11-15-15-5-22 7-4 10-11 6-15s-14 1-22 12c-14 19-14 19-15-1 0-15-2-17-9-6s-10 10-14-5c-2-10-5 7-6 38-1 55 0 58 27 64 15 3 32 7 37 9 20 7 22 4 21-27zm1984-12c0-3-4-8-10-11-5-3-10-1-10 4 0 6 5 11 10 11 6 0 10-2 10-4zm524-31c-10-25-54-45-54-25 0 6 7 10 15 10 9 0 18 7 21 15 4 8 10 15 15 15 4 0 6-7 3-15zm-558-22c-10-10-19 5-10 18 6 11 8 11 12 0 2-7 1-15-2-18zm702-11c22-17 22-19 5-34-10-8-41-20-70-25l-52-10 19 38c12 23 29 39 42 42 13 2 25 5 28 5 3 1 15-6 28-16zm-2761-69c-2-16-4-5-4 22 0 28 2 40 4 28 2-13 2-35 0-50zm2040 20c-3-10-5-4-5 12 0 17 2 24 5 18 2-7 2-21 0-30zm-2230-45c-3-8-6-5-6 6-1 11 2 17 5 13 3-3 4-12 1-19zm200-75c-3-10-5-2-5 17s2 27 5 18c2-10 2-26 0-35zm2938 37c3-5 1-10-4-10-6 0-11 5-11 10 0 6 2 10 4 10 3 0 8-4 11-10zm-2890-71c-4-10 1-21 11-27 11-6 13-11 5-16-6-4-11-17-12-29-1-20-1-20-8 3-4 14-11 48-14 75-6 46-5 48 8 31 8-11 13-28 10-37zm-32-44c4-34 3-42-3-25-8 25-13 87-6 79 2-2 6-26 9-54zm64 33c-3-8-6-5-6 6-1 11 2 17 5 13 3-3 4-12 1-19zm2243-10c0-5-7-8-15-8-15 0-20 21-8 33 7 7 23-11 23-25zm-2264-225c-5-5-36 110-35 133 0 10 9-14 20-55 10-41 17-76 15-78zm417 119c6-8 20-11 41-7 25 5 50-1 100-24 70-32 104-40 171-44 36-3 40-6 43-31 2-16-2-32-9-37-24-15 1-23 63-21 64 2 204 34 247 56 50 26 71 29 71 11 0-13 6-16 24-13 18 4 27-1 35-20 10-20 9-23-3-19-10 4-13 1-9-9 7-19 22-18 47 4 21 17 21 17 2-5-13-16-15-23-6-23 7 0 19 8 27 18 22 26 4-8-24-45-13-18-29-33-35-33s-4 8 5 18c22 24 21 38-2 38-11 0-17-4-15-8 3-4-4-16-16-28-11-11-17-20-13-20s1-6-5-12c-10-10-15-10-22 2-8 13-11 12-24-5-9-11-14-25-11-32 2-6-3-14-12-17-9-4-13-9-10-13 4-3 21 5 39 19s44 31 58 37c22 12 22 10-5-14-59-53-144-82-315-105-133-19-390-1-390 27 0 16-73 30-78 14-2-6-9-11-15-11-8 0-7 4 1 12 14 14 16 28 3 28-17 0-63 49-57 59 4 5-8 20-25 33s-37 35-45 50-20 25-27 22c-9-3-12 6-9 36 2 23 6 39 9 36 10-10 33 23 27 38-5 12 3 19 25 27 17 6 31 14 31 18 0 13 105 6 113-7zm928-23c-5-13-10-19-10-12-1 15 10 45 15 40 3-2 0-15-5-28zm-40-49c5 0 9 8 10 18 0 11 2 12 6 4 6-15-16-72-28-72-5 0-6 6-3 14s1 23-5 34-7 23-3 27 8 0 10-9 8-16 13-16zm-1221-32c0-10-4-18-10-18-5 0-10 15-10 33 0 24 3 28 10 17 5-8 10-23 10-32zm0-145c17-16 55-43 85-58 55-28 76-53 30-35-80 31-133 77-169 148-14 28-26 55-26 59 1 4 12-12 25-38 13-25 37-59 55-76zm10 62c0-18 7-41 16-50s14-18 11-21c-2-3-14 7-26 22-21 27-30 101-11 89 6-3 10-21 10-40zm17 13c-3-8-6-5-6 6-1 11 2 17 5 13 3-3 4-12 1-19zm1023-92c0-2-7-9-15-16-13-11-14-10-9 4s24 23 24 12zm36-131c-10-7-15-19-11-25 5-9 1-10-14-5-12 3-21 3-20-2 1-4 1-17 0-28-1-17-3-18-11-5-7 11-10 12-10 2 0-9-7-11-22-7-16 4-19 4-9-3 19-14 6-29-30-37-24-5-30-11-26-26s-3-20-37-26c-43-9-41-7-45-75-1-10-8-18-16-18s-19-9-25-19c-13-26-13-31 5-31 9 0 12-6 8-16-4-11-8-12-13-4s-10 9-14 2c-3-6-2-13 4-17 13-8 13-45 0-45-5 0-10 7-10 15 0 13-2 14-14 3-8-7-10-14-5-16 16-6 10-19-11-25-11-3-20-13-20-22 0-10-16-35-35-56-21-23-35-33-35-24 0 26-17 16-23-14-4-19-15-32-36-40-16-7-32-19-35-27s-13-14-23-14c-17 1-17 1-1 14 20 15 5 38-18 29-8-3-14 0-14 6s-6 11-13 11c-22 0-38 22-26 36 14 17 7 60-9 56-16-3-16 40 0 56 9 9 9 15 0 24-10 10-15 10-22-2-8-13-10-12-10 3 0 11-10 20-30 24-19 3-30 12-30 23 0 9-11 27-24 39-15 14-22 30-19 42s-1 21-12 25c-16 7-16 8-2 19 17 12 18 45 2 58-5 4 1 7 15 5 16-2 25 2 25 12 0 8 11 17 25 21 24 7 24 7 3 8-13 1-23 4-23 9 0 4 87 7 193 8 135 0 220 5 285 17 94 17 204 49 232 67 23 15 28 11 6-5zm-1026-11 25-15-25 7c-14 3-29 10-34 15-16 14 6 10 34-7zm75-20c13-5 14-8 3-15-18-12-31-11-23 1 8 13-11 13-38-1-21-10-21-10-3 5 22 17 35 19 61 10zm-125-24c0-5-2-10-4-10-3 0-8 5-11 10-3 6-1 10 4 10 6 0 11-4 11-10zm285-10c39-8 39-8-15-8-30-1-68 5-85 13-30 14-30 14 15 8 25-3 63-9 85-13zm65-20c0-5-4-10-10-10-5 0-10 5-10 10 0 6 5 10 10 10 6 0 10-4 10-10zm540-100c0-5-9-10-20-10s-20 5-20 10c0 6 9 10 20 10s20-4 20-10zm-603-82c-3-8-6-5-6 6-1 11 2 17 5 13 3-3 4-12 1-19zm-250-140c-3-8-6-5-6 6-1 11 2 17 5 13 3-3 4-12 1-19zm443-153c10-12 9-15-8-15-11 0-22 7-26 15-3 9 0 15 8 15 7 0 19-7 26-15zm53-75c4-17 2-18-14-9-11 5-17 14-14 20 10 15 22 10 28-11zm1934-142c-3-8-6-5-6 6-1 11 2 17 5 13 3-3 4-12 1-19zm-2353-84c3-8 2-12-4-9s-10 10-10 16c0 14 7 11 14-7zm1376-22c0-14 7-17 46-14 37 3 50 0 69-18 22-20 25-21 31-6 8 20 34 21 34 2 0-8 5-18 10-21 14-9 52 4 45 16-4 5 9 9 27 9 19 0 39 5 45 11 14 14 240 13 303 0 91-20 105-24 117-33 7-6 19-5 32 1 13 7 22 8 26 1 9-15 25-12 25 4 0 19 67-13 93-43 20-25 21-28 6-44-9-9-46-10-153-4-170 11-227 11-286 5-25-3-51-6-58-7-8 0-10-6-6-13 6-10 5-10-8 0-9 7-27 10-47 6-29-6-31-5-31 25 0 25 4 31 23 31 20 1 57 21 57 32 0 8-154 4-166-4-6-4-32-5-58-3-35 4-48 1-52-10-7-18-23-19-61-4-21 8-24 12-13 19 21 13 9 20-41 21-83 2-101 17-51 42 37 20 42 20 42-1zm293-149c-7-2-19-2-25 0-7 3-2 5 12 5s19-2 13-5zm-73-144c0-23-15-32-40-24-18 6-18 8-5 21 8 9 15 25 15 37 1 22 1 22 15 3 8-11 15-28 15-37zm-209-2c-13-13-15 1-4 30 7 17 8 17 11-1 2-10-1-23-7-29zm-638-4c-7-2-19-2-25 0-7 3-2 5 12 5s19-2 13-5zm714-65c-3-7-5-2-5 12s2 19 5 13c2-7 2-19 0-25zm952-247c-15-5-22 6-14 19 6 9 10 9 16-1 5-8 4-15-2-18zm145-177c6-15 4-15-11-3-10 7-20 15-22 16-2 2 3 3 11 3 9 0 19-7 22-16zm41 5c11-17 2-18-19-3-17 12-17 14-4 14 9 0 20-5 23-11zm-1679-114c-3-8-10-15-15-15s-4 11 2 25c12 25 23 16 13-10zm124-115c0-5-7-10-16-10-8 0-12 5-9 10 3 6 10 10 16 10 5 0 9-4 9-10zm1120-40c0-5-7-10-15-10s-15 5-15 10c0 6 7 10 15 10s15-4 15-10zm-236-115c3-8 1-15-4-15-6 0-10 7-10 15s2 15 4 15 6-7 10-15zm-329-5c3-5 1-10-4-10-6 0-11 5-11 10 0 6 2 10 4 10 3 0 8-4 11-10zm45-40c0-5-4-10-10-10-5 0-10 5-10 10 0 6 5 10 10 10 6 0 10-4 10-10zm-1003-582c-3-7-5-2-5 12s2 19 5 13c2-7 2-19 0-25zm8-38c-3-5-10-10-16-10-5 0-9 5-9 10 0 6 7 10 16 10 8 0 12-4 9-10zm5-87c0-45-8-39-16 11-4 26-2 36 5 31 6-3 11-22 11-42zm33-64c27 0 29-2 12-9-37-16-55-12-54 13 0 12 3 16 6 10 2-7 19-13 36-14zm4-121c-3-8-6-5-6 6-1 11 2 17 5 13 3-3 4-12 1-19zm83-113c12-15 6-35-11-35-5 0-9 5-9 11 0 7-8 18-17 25-17 12-17 13 3 14 12 0 27-7 34-15zm40-56c0-11-4-18-10-14-5 3-7 12-3 20 7 21 13 19 13-6zm464-295c9-3 16-15 16-27 0-19-1-20-20-2-30 27-28 41 4 29zm106-123c0-9-51-31-72-31-12 0-18 7-18 23 0 20 4 22 45 19 25-2 45-7 45-11zm550-406c-7-8-16-15-21-15s-1 8 9 18c20 22 31 19 12-3z" style="fill:#000" transform="matrix(.1 0 0 -.1 0 960)"/><path d="M2646 7466c10-8 21-12 24-10 5 6-21 24-34 24-6 0-1-6 10-14zM1868 7373c6-2 18-2 25 0 6 3 1 5-13 5s-19-2-12-5zM1410 6259c0-11 5-17 10-14 6 3 10 13 10 21s-4 14-10 14c-5 0-10-9-10-21zM2335 5960c-3-5-1-10 4-10 6 0 11 5 11 10 0 6-2 10-4 10-3 0-8-4-11-10zM2685 5920c3-5 11-10 16-10 6 0 7 5 4 10-3 6-11 10-16 10-6 0-7-4-4-10zM2438 5913c7-3 16-2 19 1 4 3-2 6-13 5-11 0-14-3-6-6zM4150 5900c0-5 7-10 16-10 8 0 12 5 9 10-3 6-10 10-16 10-5 0-9-4-9-10zM1555 5891c-3-5-1-12 5-16 5-3 10 1 10 9 0 18-6 21-15 7zM2760 5850c0-5 7-10 15-10s15 5 15 10c0 6-7 10-15 10s-15-4-15-10zM2800 5850c0-5 5-10 11-10 5 0 7 5 4 10-3 6-8 10-11 10-2 0-4-4-4-10zM1520 5744c0-14 3-14 15-4 8 7 15 14 15 16s-7 4-15 4-15-7-15-16zM3150 5682c0-5 7-13 16-16 10-4 14-1 12 6-5 15-28 23-28 10zM3980 5556c0-2 7-7 16-10 8-3 12-2 9 4-6 10-25 14-25 6zM4636 5452c-3-5 1-9 9-9s12 4 9 9c-3 4-7 8-9 8s-6-4-9-8zM4538 5433c7-3 16-2 19 1 4 3-2 6-13 5-11 0-14-3-6-6zM4711 5324c0-11 3-14 6-6 3 7 2 16-1 19-3 4-6-2-5-13zM3920 5170c0-5 5-10 10-10 6 0 10 5 10 10 0 6-4 10-10 10-5 0-10-4-10-10zM4030 5345c0-8 4-15 8-15 5 0 9 7 9 15s-4 15-9 15c-4 0-8-7-8-15zM1870 4470c0-5 5-10 10-10 6 0 10 5 10 10 0 6-4 10-10 10-5 0-10-4-10-10zM1983 4243c-18-7-16-23 2-23 8 0 15 7 15 15s-1 15-2 14c-2 0-9-3-15-6zM1945 4200c-3-5 1-10 9-10 9 0 16 5 16 10 0 6-4 10-9 10-6 0-13-4-16-10zM2115 4150c3-5 8-10 11-10 2 0 4 5 4 10 0 6-5 10-11 10-5 0-7-4-4-10zM2824 8957c33-6 61-18 64-24 5-18 19-16 19 2s-16 24-85 30l-57 4 59-12z" style="fill:#000" transform="matrix(.1 0 0 -.1 0 960)"/><path d="M2848 8923c6-2 18-2 25 0 6 3 1 5-13 5s-19-2-12-5zM4088 8803c6-2 18-2 25 0 6 3 1 5-13 5s-19-2-12-5zM1303 4793c-15-5-17-23-4-23 5 0 11 7 15 15 3 8 4 15 3 14-1 0-8-3-14-6zM1261 4693c-1-6 15-40 35-75 52-92 94-133 94-90-1 16-30 64-30 48 0-10-85 94-93 114-3 8-6 10-6 3zM3548 4526c16-25 30-39 34-33 7 12-4 38-28 61-30 30-33 16-6-28zM2968 4213c7-3 16-2 19 1 4 3-2 6-13 5-11 0-14-3-6-6zM3020 4141c0-6 5-13 10-16 6-3 10 1 10 9 0 9-4 16-10 16-5 0-10-4-10-9zM3530 4106c0-8 4-17 9-20 10-7 23 19 14 28-11 11-23 6-23-8zM4090 3570c0-5 5-10 10-10 6 0 10 5 10 10 0 6-4 10-10 10-5 0-10-4-10-10zM2955 3370c-3-5 1-10 9-10s18 5 21 10c3 6-1 10-9 10s-18-4-21-10zM2480 3290c0-5 5-10 11-10 5 0 7 5 4 10-3 6-8 10-11 10-2 0-4-4-4-10zM4030 3233c0-5 11-13 25-20 14-6 25-7 25-3s9 6 20 3 20-1 20 5c0 14-28 23-35 12-4-7-13-6-25 0-22 12-30 13-30 3zM2466 3182c-2-4 2-16 10-27 8-10 14-16 14-13 0 4 3 13 6 21 5 15-22 32-30 19zM2519 3121c23-21 61-29 61-12 0 5-11 12-24 15s-32 9-43 12c-14 4-13 1 6-15zM2425 3110c3-5 11-10 16-10 6 0 7 5 4 10-3 6-11 10-16 10-6 0-7-4-4-10zM3832 3088c5-15 28-23 28-10 0 5-7 13-16 16-10 4-14 1-12-6zM4213 3063c-3-10-8-22-11-27s1-6 8-1c8 5 18 1 27-10 7-11 13-17 14-14 0 2 2 12 4 22 2 9-1 15-6 11-5-3-9 4-9 15 0 26-18 28-27 4zM4802 2940c-19-4-12-11 45-46 40-23 74-51 81-68 8-15 17-74 20-129l7-102 6 75c4 41 3 106-1 144-7 58-13 74-37 96-29 28-80 40-121 30zM4907 2443c-3-10-8-28-12-40-3-13-2-23 3-23 6 0 12 17 14 38 6 41 3 54-5 25zM4636 1885c-9-26-7-32 5-12 6 10 9 21 6 23-2 3-7-2-11-11zM4580 1809c0-5 5-7 10-4 6 3 10 8 10 11 0 2-4 4-10 4-5 0-10-5-10-11zM2585 870c3-5 13-10 21-10s14 5 14 10c0 6-9 10-21 10-11 0-17-4-14-10zM3360 560c0-5 9-10 20-10s20 5 20 10c0 6-9 10-20 10s-20-4-20-10zM2450 309c0-5 5-7 10-4 6 3 10 8 10 11 0 2-4 4-10 4-5 0-10-5-10-11zM2495 300c-8-13 24-106 41-121 8-6 14-18 14-26 0-11 4-11 21-3 11 6 25 9 32 6 9-3 9-5 0-5-7-1-13-6-13-12 0-7 10-9 25-5 18 5 25 2 25-9 0-8 4-15 9-15s17-7 26-16c20-20 129-32 140-15 4 8 2 11-6 10-23-4-69 20-69 35 0 7 10 16 23 20 22 5 22 6 2 19-11 7-31 14-44 15-13 0-32 9-42 19-33 32-45 40-82 52-20 7-37 17-37 22s-7 9-15 9c-9 0-18 7-21 15-7 17-20 20-29 5zM2815 10c-3-5-1-10 4-10 6 0 11 5 11 10 0 6-2 10-4 10-3 0-8-4-11-10z" style="fill:#000" transform="matrix(.1 0 0 -.1 0 960)"/></g></svg>