<?xml version="1.0" standalone="no"?>
<!DOCTYPE svg PUBLIC "-//W3C//DTD SVG 20010904//EN"
 "http://www.w3.org/TR/2001/REC-SVG-20010904/DTD/svg10.dtd">
<svg version="1.0" xmlns="http://www.w3.org/2000/svg"
 width="635.000000pt" height="960.000000pt" viewBox="0 0 635.000000 960.000000"
 preserveAspectRatio="xMidYMid meet">
<metadata>
Created by potrace 1.11, written by Peter Selinger 2001-2013
</metadata>
<g transform="translate(0.000000,960.000000) scale(0.100000,-0.100000)"
fill="#333333" stroke="none">
<path d="M2665 8968 c-33 -5 -67 -14 -75 -19 -8 -5 -32 -18 -52 -28 -21 -10
-35 -21 -31 -24 3 -4 0 -8 -8 -8 -8 -1 -18 -2 -24 -4 -5 -1 -15 -3 -22 -3 -7
-1 -45 -35 -86 -76 -40 -40 -84 -77 -96 -81 -12 -4 -20 -9 -18 -12 3 -2 15 1
27 7 18 10 21 9 13 -3 -8 -15 -70 -89 -110 -133 -13 -14 -22 -28 -22 -32 3
-20 -2 -40 -16 -58 -13 -18 -14 -16 -11 22 2 22 14 58 27 80 13 21 25 50 27
64 3 24 2 24 -13 -5 -9 -16 -25 -43 -35 -60 -10 -16 -30 -77 -45 -134 -22 -86
-32 -110 -61 -141 -42 -44 -83 -109 -84 -130 0 -13 2 -13 11 0 9 12 10 11 4
-5 -4 -11 -12 -36 -18 -55 -9 -29 -12 -31 -15 -13 -2 12 2 31 8 42 6 12 7 21
1 21 -5 0 -7 10 -4 23 5 21 5 21 -12 5 -16 -15 -16 -19 -4 -34 13 -15 11 -16
-11 -10 -14 4 -20 4 -14 -1 8 -6 9 -30 2 -83 -11 -91 -27 -115 -23 -33 2 32 1
51 -2 43 -3 -8 -10 -18 -16 -21 -5 -4 -12 -36 -14 -73 -3 -37 -10 -69 -14 -72
-5 -3 -9 -10 -9 -15 0 -6 5 -7 10 -4 13 8 12 5 -1 -34 -14 -40 -27 -40 -21 0
3 20 0 34 -9 40 -23 14 -30 10 -19 -10 5 -11 10 -26 9 -33 0 -9 -2 -9 -7 2
-19 42 -44 68 -61 63 -13 -3 -17 -11 -14 -24 3 -10 8 -19 12 -19 4 0 7 -9 7
-20 0 -11 -4 -20 -8 -20 -4 0 -8 -4 -8 -10 0 -5 6 -10 14 -10 18 0 28 -15 32
-46 2 -20 0 -22 -17 -14 -16 9 -17 8 -12 -7 6 -16 5 -17 -13 -3 -10 8 -23 21
-27 28 -11 17 -30 15 -23 -3 3 -8 9 -22 12 -30 4 -9 1 -15 -9 -15 -10 0 -13
-8 -9 -25 3 -20 0 -25 -15 -25 -11 0 -28 -7 -39 -16 -18 -15 -18 -15 4 -9 27
8 72 -18 72 -41 0 -12 -7 -14 -35 -8 -35 6 -40 1 -36 -32 1 -7 -8 -14 -20 -17
-18 -5 -19 -8 -8 -20 8 -8 16 -13 19 -12 3 2 12 -1 20 -6 13 -9 13 -10 0 -8
-8 1 -26 1 -40 0 -19 -1 -21 -4 -11 -10 10 -7 2 -12 -30 -20 l-44 -10 48 3
c26 2 46 1 43 -2 -3 -3 0 -12 7 -20 8 -11 8 -14 0 -9 -6 4 -14 3 -18 -3 -4 -6
-10 -8 -15 -5 -5 3 -11 1 -15 -5 -3 -5 -17 -10 -31 -10 -17 0 -23 -4 -18 -12
5 -8 2 -9 -9 -5 -10 4 -17 2 -17 -4 0 -6 -7 -8 -16 -5 -13 5 -14 4 -6 -7 9
-11 5 -21 -18 -47 -35 -39 -38 -54 -9 -45 18 6 20 5 10 -14 -7 -12 -19 -21
-29 -21 -15 -1 -15 -3 3 -16 20 -15 20 -15 -3 -34 -13 -11 -24 -29 -26 -42 -8
-65 -20 -109 -32 -119 -16 -13 -19 -33 -3 -24 6 4 5 -2 -3 -14 -7 -12 -16 -21
-21 -21 -4 0 -6 -4 -2 -9 6 -10 -27 -109 -51 -153 -8 -16 -12 -28 -8 -28 4 0
-1 -9 -11 -20 -10 -12 -13 -20 -6 -20 12 0 0 -27 -29 -64 -8 -11 -10 -16 -3
-13 13 8 13 -30 0 -50 -4 -6 -3 -14 3 -18 6 -4 5 -12 -5 -21 -17 -18 -20 -34
-5 -34 7 0 7 -6 1 -19 -6 -10 -8 -21 -4 -24 3 -4 0 -13 -7 -22 -10 -12 -10
-15 0 -15 10 0 10 -3 1 -14 -8 -10 -9 -16 -2 -21 7 -4 5 -15 -7 -33 -16 -25
-16 -26 1 -19 17 6 23 -3 10 -16 -5 -6 -8 -72 -3 -79 1 -2 3 -28 4 -58 2 -30
4 -57 6 -60 2 -3 5 -30 7 -60 5 -89 7 -100 14 -100 6 0 21 -48 24 -80 1 -8 5
-22 8 -30 3 -8 8 -26 10 -40 3 -14 15 -60 27 -102 12 -43 20 -84 17 -91 -3 -8
-40 -17 -103 -25 -57 -6 -101 -16 -106 -24 -13 -18 -4 -246 9 -259 6 -6 9 -18
5 -27 -5 -13 -7 -12 -13 4 -14 35 -10 -51 6 -126 15 -71 61 -180 76 -180 4 0
11 27 15 60 4 34 9 58 13 55 3 -4 18 -56 32 -116 20 -83 23 -109 13 -105 -8 3
-14 -1 -14 -9 0 -8 5 -15 10 -15 6 0 10 -9 10 -20 0 -12 5 -17 13 -14 9 3 22
-15 38 -53 13 -31 47 -82 75 -113 28 -30 49 -62 47 -70 -4 -12 -3 -13 5 -1 6
8 15 10 22 6 10 -6 9 -10 -4 -17 -19 -10 -23 -104 -5 -110 7 -2 12 -38 13 -88
1 -47 7 -95 14 -106 9 -17 8 -25 -3 -40 -13 -17 -16 -17 -25 -4 -8 12 -10 12
-10 1 0 -9 -8 -12 -26 -8 -16 3 -22 1 -16 -5 6 -6 27 -11 48 -11 l39 -2 3 -80
c2 -43 8 -87 13 -96 5 -10 9 -34 9 -54 0 -20 9 -71 19 -113 11 -43 22 -97 26
-122 11 -66 49 -178 78 -230 14 -25 37 -66 51 -93 31 -58 109 -156 210 -262
98 -104 106 -113 106 -124 0 -5 7 -11 15 -15 8 -3 15 -12 15 -21 0 -8 5 -15
10 -15 6 0 10 -5 10 -11 0 -7 11 -22 24 -34 20 -18 25 -34 27 -77 1 -29 6 -66
11 -83 12 -42 36 -172 54 -289 8 -54 16 -101 18 -105 2 -3 7 -49 11 -101 4
-52 10 -101 15 -109 4 -8 6 -40 3 -70 -3 -31 -1 -74 5 -96 5 -22 6 -49 2 -60
-7 -20 -19 78 -21 165 0 35 -2 40 -9 25 -25 -55 1 -355 45 -545 26 -108 31
-129 85 -317 17 -61 36 -140 41 -175 6 -35 13 -79 16 -98 3 -19 16 -64 30
-100 13 -36 38 -101 54 -145 17 -44 37 -100 46 -125 25 -74 63 -143 92 -168
22 -19 84 -52 97 -52 12 0 1 29 -12 34 -13 5 -14 9 -4 20 9 12 7 19 -9 35 -12
12 -28 21 -36 21 -8 0 -23 21 -35 47 -11 26 -28 55 -36 65 -11 12 -15 31 -12
62 2 25 -1 48 -7 50 -5 3 0 13 12 24 l22 19 -26 12 c-25 11 -25 12 -8 31 13
14 15 23 7 32 -14 18 -10 60 6 66 10 3 12 -4 7 -31 -6 -33 -5 -35 14 -30 28 7
63 -24 59 -53 -2 -15 10 -32 41 -58 23 -20 47 -36 52 -36 5 0 14 -11 19 -25 8
-21 16 -25 50 -25 22 0 39 -4 38 -9 -3 -10 4 -11 32 -4 11 3 20 11 20 19 0 8
-6 11 -15 8 -8 -4 -15 -2 -15 4 0 5 7 13 16 16 11 4 14 13 10 31 -3 13 -1 36
6 50 9 21 9 28 -1 35 -17 10 -8 52 15 74 20 20 54 21 54 1 0 -23 36 -36 117
-42 49 -4 77 -11 80 -20 3 -7 14 -13 24 -13 10 0 19 -6 19 -14 0 -16 21 -26
56 -26 13 0 24 -4 24 -10 0 -5 7 -10 16 -10 23 0 43 -29 44 -62 0 -37 11 -63
20 -48 4 7 10 -6 14 -28 7 -44 46 -85 72 -75 10 4 12 0 8 -12 -5 -13 -3 -16 7
-13 8 3 13 11 11 17 -2 11 3 13 31 15 6 1 26 15 43 32 18 18 41 35 53 39 11 3
21 10 21 14 0 3 13 14 29 24 47 28 89 65 236 212 171 172 222 228 265 291 19
27 36 51 39 54 3 3 28 34 56 70 27 36 55 71 62 78 7 8 26 30 41 50 15 21 30
39 33 42 17 14 180 243 176 246 -6 6 -23 -11 -72 -74 -25 -32 -58 -60 -87 -74
-26 -13 -47 -27 -48 -31 0 -12 -23 -34 -35 -33 -5 1 -14 -9 -20 -21 -8 -19
-28 -31 -47 -29 -3 1 -17 -9 -30 -20 -26 -24 -97 -64 -114 -64 -6 0 -19 -9
-28 -19 -10 -11 -30 -21 -44 -23 -18 -2 -26 -10 -29 -28 -7 -49 -10 -51 -70
-48 l-58 4 -17 44 c-9 25 -17 55 -17 68 -1 12 -5 22 -11 22 -5 0 -10 10 -10
22 0 11 -11 45 -25 75 -14 29 -23 58 -20 63 3 5 1 18 -4 27 -6 11 -11 13 -11
5 0 -10 -5 -10 -22 2 -12 9 -30 16 -40 16 -10 0 -18 7 -18 15 0 8 -4 15 -10
15 -5 0 -10 -9 -10 -21 0 -15 -4 -19 -16 -15 -9 3 -20 3 -26 0 -17 -11 -98
-10 -102 1 -2 5 -5 0 -5 -11 -1 -12 -8 -28 -17 -35 -19 -15 -74 -21 -89 -9 -5
4 -22 10 -38 14 -22 5 -32 1 -53 -21 -15 -16 -28 -23 -32 -17 -11 15 -74 43
-87 37 -7 -2 -15 5 -18 16 -3 12 -16 25 -29 30 -27 10 -39 32 -63 113 -9 32
-21 60 -26 64 -5 3 -10 15 -10 27 -1 17 -2 18 -6 5 -15 -58 -43 45 -30 110 4
23 13 42 19 42 6 0 8 9 5 20 -3 11 -1 18 3 15 5 -3 15 16 22 42 10 37 19 49
36 51 12 2 22 8 22 13 0 5 8 9 19 9 10 0 24 7 31 15 9 11 16 12 26 5 9 -8 15
-6 23 7 10 17 10 17 11 1 0 -10 5 -18 10 -18 6 0 15 -12 21 -27 7 -20 12 -24
18 -14 5 8 17 11 30 6 15 -5 21 -2 21 10 0 26 27 28 59 6 36 -26 41 -26 41 -1
0 14 7 20 21 20 12 0 23 8 26 20 3 11 12 20 20 20 8 0 11 -5 7 -11 -4 -7 -2
-10 5 -8 7 3 12 8 11 13 -3 14 23 26 46 20 14 -4 23 0 27 10 4 9 17 16 31 16
14 0 31 6 38 13 7 6 20 13 28 15 8 2 19 10 23 18 5 9 16 12 28 9 12 -4 19 -2
19 7 0 17 67 78 85 78 7 0 20 15 30 32 48 91 55 102 55 85 0 -10 -5 -27 -11
-38 -9 -18 -8 -19 8 -10 41 24 53 40 59 79 4 23 9 40 13 38 12 -8 39 20 43 44
2 16 9 24 19 22 11 -1 16 6 16 28 0 39 53 141 76 148 14 4 15 7 5 19 -10 12
-9 17 5 24 9 6 17 19 17 29 0 11 4 20 9 20 5 0 12 11 15 25 4 14 11 25 16 25
6 0 10 9 10 20 0 20 -15 28 -22 11 -1 -5 -14 -4 -28 2 -20 8 -22 11 -7 14 20
5 23 23 3 23 -8 0 -16 -7 -20 -15 -6 -17 -26 -20 -26 -4 0 6 -9 24 -20 39 -13
18 -16 31 -10 35 5 3 10 2 10 -3 0 -11 60 -35 67 -28 3 2 -7 12 -21 21 -14 10
-26 24 -26 31 0 17 12 18 28 2 9 -9 12 -9 12 0 0 6 -8 16 -17 22 -14 9 -11 10
18 5 28 -4 38 -2 43 11 8 21 8 24 -5 24 -5 0 -7 -5 -3 -11 12 -20 -69 0 -88
22 -17 20 -38 26 -38 10 0 -5 -8 -8 -17 -7 -12 1 -17 -5 -15 -16 2 -10 -2 -18
-8 -18 -9 0 -11 6 -14 43 -1 16 -29 45 -39 40 -4 -2 0 -14 8 -26 17 -24 20
-41 6 -33 -14 9 -36 -25 -33 -50 2 -17 -2 -24 -12 -24 -9 0 -16 -4 -16 -10 0
-5 6 -7 13 -4 8 3 20 -2 27 -11 10 -13 9 -15 -7 -15 -12 0 -19 -8 -20 -20 -1
-12 4 -20 15 -20 13 0 13 -2 -4 -14 -13 -10 -23 -11 -31 -5 -8 7 -15 4 -23
-11 -6 -12 -9 -24 -6 -27 3 -4 1 -12 -5 -19 -8 -10 -15 -10 -29 -1 -26 16 -37
1 -17 -21 21 -23 21 -32 2 -32 -8 0 -15 -4 -15 -10 0 -5 5 -10 11 -10 22 0 1
-25 -22 -26 -64 -3 -62 -2 -54 -40 5 -27 3 -34 -6 -28 -9 5 -10 2 -6 -9 9 -24
-2 -47 -23 -47 -17 0 -53 36 -63 63 -2 7 -8 8 -13 4 -5 -4 -4 -11 2 -15 26
-16 25 -50 -1 -70 -14 -11 -25 -24 -25 -30 0 -5 -7 -13 -15 -16 -12 -4 -14
-10 -5 -25 7 -13 7 -22 0 -26 -5 -3 -10 3 -10 15 0 12 -4 18 -10 15 -6 -3 -10
4 -10 16 0 29 -7 21 -14 -15 -5 -30 -21 -46 -43 -46 -13 0 -17 17 -14 60 1 24
1 24 -14 6 -8 -11 -15 -23 -15 -28 0 -4 -8 -4 -17 -1 -13 5 -15 3 -9 -13 16
-37 18 -54 9 -54 -6 0 -15 15 -21 33 l-11 32 2 -32 c2 -18 0 -30 -5 -27 -4 3
-8 16 -8 29 0 18 -4 23 -15 19 -10 -4 -15 0 -16 12 -1 11 -5 1 -8 -20 -7 -44
-29 -60 -38 -27 -9 35 -26 24 -19 -11 4 -24 3 -29 -4 -18 -5 8 -10 35 -11 60
-2 34 -3 38 -6 14 -3 -26 -8 -31 -33 -31 -20 0 -32 7 -42 26 -7 14 -17 29 -23
33 -15 11 -26 -2 -20 -23 4 -11 2 -19 -5 -19 -26 0 -42 -30 -36 -65 6 -28 4
-35 -9 -35 -21 0 -19 -13 5 -30 11 -8 20 -21 20 -30 -1 -12 -3 -11 -11 3 -8
14 -14 16 -25 6 -11 -9 -14 -8 -15 7 0 11 -3 14 -6 7 -9 -23 -29 -14 -42 20
-15 37 -61 78 -61 53 0 -8 4 -26 9 -39 8 -21 6 -26 -9 -30 -11 -3 -20 -16 -22
-33 -3 -28 -3 -29 -16 -7 -14 25 -6 54 13 47 21 -9 15 68 -7 84 -10 7 -18 20
-18 28 0 8 -5 14 -11 14 -7 0 -8 -7 -4 -18 10 -24 14 -107 6 -120 -12 -19 -49
-3 -44 19 4 12 -8 31 -36 59 -23 22 -41 45 -41 50 0 6 -7 10 -15 10 -8 0 -15
8 -15 18 0 12 -6 9 -21 -13 l-21 -30 5 28 c2 15 2 25 -1 22 -8 -8 -34 34 -27
45 9 14 -5 60 -18 57 -6 -1 -11 4 -12 12 0 21 -20 24 -39 6 -21 -21 -36 -11
-36 26 0 33 -15 39 -25 9 -3 -11 -11 -20 -16 -20 -8 0 -6 28 6 67 8 24 -15 24
-24 0 -9 -23 -29 -37 -53 -37 -7 0 -7 4 0 13 5 6 9 27 7 45 -1 21 3 32 12 32
8 0 13 -12 13 -32 1 -28 2 -30 11 -15 6 10 9 23 6 30 -2 6 2 18 10 25 7 7 13
17 13 21 0 4 -29 31 -65 60 -36 29 -65 60 -65 68 0 10 -6 12 -20 8 -14 -4 -20
-2 -20 8 0 8 -9 17 -21 20 -11 3 -19 11 -18 19 2 14 -6 42 -23 72 -14 26 -19
108 -7 122 5 6 4 21 -4 37 -9 21 -19 27 -44 27 -17 0 -35 -4 -38 -10 -8 -12
-35 -13 -35 -1 0 5 9 19 19 32 19 23 20 23 34 5 12 -17 14 -17 20 -3 4 10 12
14 22 11 11 -5 18 0 21 13 5 18 9 19 29 9 14 -6 35 -30 47 -53 l23 -41 39 19
c22 10 42 16 45 13 3 -4 0 -9 -6 -11 -20 -7 -15 -26 14 -50 17 -15 34 -21 47
-17 14 3 17 2 8 -4 -7 -5 -10 -16 -6 -26 5 -13 14 -15 39 -10 25 4 34 2 39
-12 8 -20 -2 -34 -12 -17 -5 7 -11 7 -20 -3 -7 -8 -9 -15 -5 -15 4 -1 13 -2
19 -3 6 0 18 -9 28 -19 10 -9 24 -17 32 -17 8 0 13 -4 10 -9 -3 -5 9 -8 27 -6
17 1 38 -2 45 -8 9 -7 16 -7 24 1 15 15 65 16 70 2 4 -13 184 -40 265 -40 80
0 116 13 108 39 -5 16 5 24 52 48 42 20 59 34 61 51 5 31 -14 28 -26 -5 -10
-26 -10 -26 -11 -5 -1 36 -41 43 -228 45 -95 1 -173 6 -173 11 0 4 -9 6 -20 3
-12 -3 -33 1 -48 9 -15 7 -35 11 -44 8 -10 -3 -28 2 -40 10 -12 9 -30 16 -38
16 -9 0 -25 6 -35 14 -16 11 -16 15 -4 28 12 14 16 14 29 -2 21 -24 55 -40 82
-39 15 0 18 3 8 6 -8 4 -21 13 -29 21 -12 12 -12 15 0 23 19 12 31 11 53 -6
26 -20 31 -19 58 9 36 39 72 43 99 12 28 -32 52 -33 72 -3 15 21 16 21 15 2
-3 -46 2 -55 29 -55 25 0 25 1 10 18 -20 22 -22 40 -4 39 57 -2 77 4 77 23 0
13 7 20 19 20 11 0 23 5 27 11 4 7 0 9 -14 5 -15 -5 -24 -1 -32 14 -14 27 -7
37 30 42 34 5 46 -5 53 -42 4 -23 4 -22 6 5 2 42 17 63 32 48 9 -9 15 -8 26 3
8 8 19 11 25 8 6 -4 13 -1 17 5 6 8 15 9 34 2 18 -7 28 -7 33 0 4 6 13 4 25
-7 17 -15 19 -15 25 -1 4 12 11 14 23 8 9 -5 26 -9 36 -8 13 1 21 -5 23 -19
l3 -21 57 23 c31 13 62 24 68 24 6 0 17 6 23 14 16 19 101 14 116 -8 17 -23
95 -18 95 6 0 10 -7 21 -15 24 -15 6 -16 29 -2 51 4 7 15 9 24 6 13 -5 15 0
11 31 -2 23 0 35 6 33 6 -2 10 -11 8 -21 -2 -9 2 -16 9 -16 6 0 9 -7 5 -15 -4
-11 1 -15 19 -15 16 0 25 6 25 15 0 8 4 15 9 15 5 0 11 -7 15 -15 7 -18 33
-20 39 -2 3 9 7 9 18 0 13 -10 15 -6 16 28 1 22 9 46 17 55 28 28 24 71 -9
100 -13 12 -21 25 -17 29 4 4 -3 4 -16 1 -13 -5 -35 -1 -54 9 -30 15 -34 15
-45 -1 -7 -10 -14 -16 -16 -13 -1 2 -9 16 -16 31 -12 23 -17 25 -39 17 -20 -8
-28 -6 -34 5 -12 21 -75 49 -94 42 -8 -3 -24 -1 -34 4 -16 9 -21 6 -26 -15 -8
-33 -16 -32 -32 5 -13 29 -32 41 -32 20 0 -5 -4 -10 -10 -10 -5 0 -10 7 -10
15 0 8 -3 15 -7 15 -13 -1 -50 -34 -56 -50 -3 -10 -8 -6 -16 13 -14 35 -6 50
22 42 21 -6 21 -5 -2 15 l-25 21 -12 -28 -11 -28 -8 28 c-4 15 -5 41 -1 57 3
17 1 30 -4 30 -15 0 -38 -40 -33 -59 3 -11 -1 -18 -11 -18 -10 0 -16 9 -16 24
0 13 5 23 10 23 19 0 10 29 -11 35 -25 8 -21 37 8 50 21 9 39 58 27 76 -3 5
-17 9 -32 9 -22 1 -24 2 -10 10 26 16 15 45 -18 48 -22 2 -44 -8 -89 -44 -33
-26 -51 -44 -40 -41 11 3 30 8 42 12 12 3 25 15 28 26 4 10 13 19 22 19 12 0
14 -7 9 -32 -4 -18 -7 -40 -7 -50 0 -9 -9 -18 -20 -21 -11 -3 -23 -15 -26 -26
-5 -21 -13 -25 -47 -21 -10 1 -15 -3 -12 -8 4 -6 -2 -8 -14 -5 -11 3 -20 0
-20 -6 0 -6 5 -11 10 -11 6 0 10 -8 10 -17 0 -15 -4 -13 -20 7 -20 24 -21 25
-35 6 -12 -16 -18 -17 -27 -8 -7 7 -39 12 -75 12 -60 0 -113 15 -113 32 0 4
-8 8 -17 8 -10 0 -29 9 -43 20 l-25 19 28 10 c32 12 37 26 6 18 -12 -3 -32 -1
-46 4 -21 8 -23 12 -13 24 10 12 9 16 -4 21 -9 3 -16 14 -16 23 0 23 -31 47
-57 43 -13 -2 -23 1 -23 7 0 6 -13 17 -30 26 -44 23 -149 18 -134 -6 3 -5 -7
-14 -21 -19 -31 -12 -85 -13 -85 -2 0 4 -10 12 -22 17 -20 9 -23 16 -21 66 2
38 11 71 28 100 29 51 78 109 93 109 19 0 47 55 48 96 1 32 12 57 46 105 54
76 108 174 108 195 0 8 4 13 9 10 5 -4 13 8 16 26 4 18 11 38 15 43 4 6 11 21
15 35 11 36 43 103 58 120 52 61 170 78 230 34 25 -18 97 -148 97 -176 0 -27
89 -206 143 -288 30 -47 59 -98 62 -113 4 -15 11 -27 16 -27 5 0 9 -10 9 -23
0 -12 9 -28 21 -35 29 -19 33 -10 7 18 -15 16 -18 25 -10 28 7 2 9 9 5 15 -4
6 -1 8 8 4 166 -72 294 -102 469 -113 114 -6 324 7 425 27 154 31 266 106 318
212 26 54 76 215 97 315 11 50 30 72 30 33 0 -10 6 -21 14 -24 8 -3 16 -21 19
-39 3 -27 4 -25 5 12 1 25 -5 56 -13 70 -18 31 -18 41 -2 37 7 -1 11 7 10 18
l-2 20 15 -20 c8 -11 12 -30 9 -42 -4 -17 -2 -21 10 -17 18 7 14 27 -17 87
-21 42 -15 64 8 33 15 -22 19 -10 4 14 -6 10 -3 25 10 47 26 44 40 242 19 260
-8 6 -48 18 -89 25 -61 12 -75 18 -77 34 -2 14 -1 15 4 4 4 -9 15 28 24 85 10
55 25 132 34 170 9 39 18 98 19 132 2 35 8 68 13 75 6 7 11 32 11 56 0 23 1
43 2 45 7 9 6 68 -1 73 -5 3 -5 13 1 23 6 12 6 39 -1 77 -6 33 -13 75 -16 94
-2 19 -6 49 -8 65 -2 17 -4 30 -5 30 -2 0 -4 11 -5 25 -2 14 -10 52 -18 85 -8
33 -14 76 -12 95 1 19 -2 40 -7 47 -5 7 -5 13 0 17 6 3 8 33 6 67 -3 43 -1 59
7 54 8 -6 8 -2 0 14 -7 11 -8 21 -3 21 23 0 20 43 -4 65 -21 20 -22 23 -6 18
22 -5 37 11 26 29 -12 19 -12 47 0 45 17 -3 6 54 -15 85 -11 15 -29 30 -40 33
-20 7 -20 7 -2 21 11 8 13 14 6 15 -7 1 -17 2 -22 3 -24 3 -21 16 3 16 16 0
25 4 21 10 -3 6 -20 10 -36 10 -25 0 -28 2 -17 14 8 8 17 11 24 5 6 -5 18 -3
29 5 18 13 18 14 -1 20 -10 3 -22 5 -25 3 -3 -1 -13 6 -22 15 -19 18 -13 48
10 48 8 0 11 5 8 10 -3 6 -27 10 -52 10 l-46 0 24 19 c14 10 36 21 49 24 l25
4 -25 2 c-20 1 -22 3 -10 11 13 9 13 10 0 10 -9 1 -5 6 10 15 l25 14 -30 1
-30 1 27 15 c30 16 38 30 12 20 -9 -3 -12 -2 -8 5 3 6 14 9 23 6 9 -2 23 3 30
11 18 19 -3 34 -41 29 -15 -2 -25 0 -22 5 3 4 11 8 18 8 7 0 21 9 31 20 18 20
18 20 -11 6 -16 -7 -47 -16 -69 -19 l-40 -5 46 21 c27 13 44 27 42 35 -3 6 0
12 5 12 17 0 22 28 6 34 -8 3 -12 2 -9 -3 3 -5 1 -12 -4 -15 -5 -3 -12 1 -15
9 -3 9 1 18 8 21 8 3 17 12 20 20 4 11 2 12 -14 4 -22 -12 -33 -13 -27 -2 3 4
-1 13 -9 20 -8 7 -14 8 -14 2 0 -5 -7 -10 -16 -10 -14 0 -14 2 1 16 19 19 16
49 -5 49 -11 0 -14 9 -12 31 2 18 -3 38 -12 46 -8 9 -18 27 -21 40 -5 20 -11
24 -31 20 -17 -3 -32 2 -45 17 -11 11 -27 21 -36 21 -13 0 -14 7 -9 43 10 58
26 71 27 22 1 -22 0 -47 -1 -55 -1 -11 1 -12 10 -4 6 6 12 48 13 95 1 74 -2
89 -24 124 -14 22 -28 48 -32 58 -4 10 -11 15 -17 12 -5 -3 -7 0 -4 8 3 8 -2
20 -10 27 -9 7 -13 16 -10 21 3 5 -1 9 -10 9 -8 0 -25 17 -37 38 -13 20 -38
51 -55 69 -18 17 -37 48 -44 68 -7 22 -25 45 -46 58 -18 12 -34 29 -34 38 0
21 -47 62 -96 83 -64 28 -185 12 -284 -38 -25 -12 -50 -21 -57 -19 -6 2 -15
-1 -19 -8 -5 -8 -3 -9 6 -4 8 5 11 4 6 -3 -8 -13 -56 5 -89 33 -35 30 -156 90
-247 123 -118 43 -192 54 -365 57 -82 2 -157 4 -165 4 -8 0 -38 -1 -67 -3 -32
-2 -51 0 -50 6 2 11 -42 19 -57 10 -5 -3 -1 -9 10 -13 12 -5 -3 -8 -41 -8 -33
-1 -85 -7 -115 -15 -30 -8 -59 -12 -64 -9 -5 4 -6 1 -2 -5 5 -8 -1 -12 -17
-12 -14 0 -30 -7 -37 -15 -14 -17 -30 -20 -30 -4 0 5 5 7 10 4 6 -3 10 0 10 7
0 18 100 56 175 68 53 8 55 9 13 7 -55 -2 -54 9 2 18 22 4 42 11 46 16 3 5 4
8 2 8 -2 -1 -30 -6 -63 -11z m-216 -111 c-2 -1 -14 -11 -26 -21 -13 -11 -23
-16 -23 -13 0 10 31 37 42 37 6 0 9 -1 7 -3z m11 -24 c0 -5 -12 -14 -28 -20
l-27 -13 24 20 c25 22 31 24 31 13z m953 -10 c-7 -2 -19 -2 -25 0 -7 3 -2 5
12 5 14 0 19 -2 13 -5z m-918 -68 c-16 -14 -33 -25 -36 -25 -3 0 -11 -10 -18
-23 -7 -13 -19 -24 -26 -24 -30 0 15 51 70 80 42 23 45 20 10 -8z m114 21 c-2
-2 -15 -9 -29 -15 -24 -11 -24 -11 -6 3 16 13 49 24 35 12z m1591 -97 c0 -5
-16 1 -36 13 -26 15 -32 23 -22 29 12 8 58 -25 58 -42z m-71 10 c16 -11 15
-14 -20 -46 -33 -30 -39 -32 -63 -22 -29 14 -34 29 -10 29 8 0 13 4 9 9 -6 11
33 41 52 41 7 0 22 -5 32 -11z m-161 -19 c-13 -20 -28 -27 -28 -12 0 10 22 32
32 32 5 0 3 -9 -4 -20z m142 -64 c0 -2 -7 -7 -16 -10 -8 -3 -12 -2 -9 4 6 10
25 14 25 6z m-2094 -365 c-27 -53 -42 -67 -31 -28 8 25 48 88 53 82 2 -1 -8
-26 -22 -54z m2710 -460 c-6 -9 -46 -22 -46 -15 0 3 10 9 23 14 29 11 29 11
23 1z m-1697 -254 c12 -15 12 -17 -3 -11 -9 3 -16 13 -16 22 0 8 1 13 3 11 1
-2 9 -12 16 -22z m-964 -7 c9 -10 20 -18 24 -17 3 1 7 -2 8 -7 1 -9 23 -26 35
-26 4 0 5 7 2 15 -4 8 -1 15 4 15 6 0 9 -9 7 -19 -4 -22 12 -37 35 -35 8 1 23
2 33 3 9 0 17 8 17 16 0 8 5 15 11 15 6 0 8 7 5 15 -5 14 -1 13 24 -2 16 -9
25 -20 20 -23 -5 -3 6 -6 25 -6 22 0 35 5 35 13 0 16 -1 16 46 -2 l39 -16 -22
20 c-32 27 -29 34 7 16 39 -20 47 -19 26 4 -17 19 -16 19 18 7 20 -7 39 -15
42 -19 11 -11 26 -8 19 3 -8 13 1 13 25 0 16 -9 18 -8 13 6 -5 15 -3 14 22 -2
27 -18 28 -18 21 3 l-7 22 43 -22 c24 -12 53 -22 65 -22 18 -1 20 2 12 17 -5
10 -15 18 -21 18 -6 0 -9 2 -6 5 3 3 18 -1 34 -10 38 -20 51 -19 66 4 6 10 17
17 24 14 6 -2 15 0 19 6 10 16 51 13 66 -5 19 -23 52 -34 61 -21 5 8 16 3 34
-13 l28 -25 -23 33 c-21 30 -17 44 6 21 12 -12 63 -20 63 -9 0 15 33 20 48 8
13 -11 15 -11 8 2 -4 9 -1 8 7 -2 8 -10 19 -18 26 -18 6 0 11 -9 11 -21 0 -11
4 -18 9 -15 5 4 41 8 80 11 52 4 71 2 71 -7 0 -6 6 -3 14 8 14 18 15 18 21 2
8 -21 41 -24 48 -5 3 6 6 1 6 -13 1 -17 4 -21 9 -12 7 10 18 8 51 -10 36 -19
43 -20 51 -8 7 12 12 12 21 3 9 -9 16 -10 26 -1 21 17 83 19 90 2 3 -8 9 -11
15 -8 5 3 4 12 -4 22 -11 13 -11 14 2 10 8 -2 20 -14 25 -25 10 -20 11 -20 23
5 7 14 12 32 12 40 0 11 2 11 15 0 42 -38 45 -39 45 -23 0 8 5 15 10 15 6 0
10 -6 10 -14 0 -11 15 -14 70 -12 39 1 65 -1 58 -5 -7 -4 -9 -11 -5 -16 4 -4
17 -1 29 6 18 11 23 11 33 -3 7 -9 22 -16 34 -16 11 0 21 -5 21 -11 0 -6 7 -8
16 -5 9 4 28 -1 41 -10 14 -8 31 -13 38 -10 9 3 12 0 9 -8 -4 -10 8 -16 38
-20 29 -5 55 -18 81 -42 20 -19 37 -38 37 -42 0 -13 61 -62 77 -62 8 0 17 -9
20 -20 3 -11 9 -20 14 -20 4 0 31 -28 60 -62 28 -35 62 -75 75 -90 13 -16 22
-28 19 -28 -3 0 6 -12 20 -27 14 -15 25 -34 25 -41 0 -7 11 -30 25 -53 14 -22
23 -44 20 -49 -3 -5 0 -12 5 -15 16 -10 60 -110 60 -135 0 -11 7 -23 15 -26
19 -8 20 -24 1 -24 -11 0 -12 -5 -3 -25 7 -14 15 -25 20 -25 4 0 7 -11 7 -25
0 -14 5 -25 12 -25 9 0 9 -3 1 -11 -9 -9 -8 -15 3 -26 8 -9 12 -24 8 -37 -3
-14 1 -29 10 -39 12 -12 13 -17 3 -21 -9 -5 -9 -7 1 -12 17 -8 15 -24 -3 -24
-11 0 -14 -7 -10 -22 2 -13 6 -36 9 -53 2 -16 8 -41 13 -55 12 -32 8 -180 -6
-223 -6 -17 -13 -45 -15 -62 -5 -33 -19 -107 -35 -176 -5 -24 -13 -61 -16 -82
-4 -27 -10 -37 -20 -33 -8 2 -51 10 -97 16 -71 10 -86 15 -105 38 -11 15 -19
31 -16 36 4 5 1 6 -6 2 -13 -8 -44 12 -36 24 2 4 -11 6 -30 4 -19 -1 -35 1
-35 4 0 9 -50 32 -69 32 -8 0 -12 3 -8 6 8 9 -39 47 -90 73 -28 14 -52 19 -68
15 -14 -3 -32 -1 -40 6 -8 6 -19 9 -25 5 -6 -4 -17 0 -23 8 -14 18 -63 35 -53
18 10 -15 -17 -14 -32 1 -9 9 -12 9 -12 -1 0 -27 -23 -38 -50 -23 l-25 14 28
-6 c15 -4 27 -2 27 3 0 16 -14 19 -40 8 -14 -5 -33 -9 -42 -8 -10 1 -18 -2
-18 -8 0 -6 6 -8 14 -5 8 3 17 1 21 -5 8 -14 -48 -15 -93 -2 -20 6 -32 6 -32
0 0 -5 7 -9 15 -9 8 0 15 -4 15 -10 0 -5 -11 -10 -25 -10 -14 0 -25 3 -25 8 0
4 -36 8 -80 8 -74 2 -104 -8 -62 -19 9 -3 -2 -4 -25 -2 -26 2 -43 0 -43 -7 0
-5 -7 -7 -16 -4 -9 4 -23 1 -31 -5 -10 -9 -17 -9 -25 -1 -17 17 -33 15 -19 -2
9 -10 9 -16 1 -21 -15 -9 -60 3 -60 15 0 6 -5 10 -11 10 -5 0 -7 -5 -4 -10 10
-16 -13 -38 -46 -45 -22 -5 -29 -11 -25 -22 5 -11 2 -13 -10 -9 -13 5 -15 2
-11 -14 4 -17 3 -19 -8 -10 -8 7 -23 9 -35 5 -15 -5 -19 -12 -14 -31 7 -26 -5
-31 -24 -12 -9 9 -12 8 -12 -5 0 -9 5 -17 10 -17 19 0 10 -17 -16 -29 l-27
-12 21 -19 c12 -11 31 -20 44 -20 38 -1 -3 -20 -54 -25 -133 -16 -178 -17
-178 -6 0 6 -8 11 -19 11 -14 0 -17 6 -13 25 3 21 0 25 -18 25 -16 0 -20 4
-16 16 4 11 -1 18 -14 21 -21 6 -28 23 -9 23 5 0 7 5 4 11 -4 6 -13 8 -21 5
-8 -3 -14 1 -14 10 0 8 -7 17 -15 20 -8 4 -15 10 -15 16 0 13 -26 38 -39 38
-6 0 -11 6 -11 14 0 9 -18 16 -55 21 -38 4 -55 11 -55 21 0 17 12 18 28 2 8
-8 12 -8 12 -1 0 17 -28 36 -41 28 -6 -4 -15 -1 -20 6 -6 10 -11 11 -16 3 -11
-15 -109 -12 -105 4 2 11 -18 16 -55 15 -16 -1 -17 14 -1 19 7 3 5 7 -6 11 -9
4 -15 3 -11 -2 3 -5 -4 -12 -15 -16 -23 -7 -60 2 -60 16 0 5 -18 9 -40 9 -33
0 -40 4 -40 19 0 11 -9 21 -22 25 -33 8 -38 7 -35 -6 1 -7 -9 -14 -23 -16 -41
-6 -48 -22 -9 -23 l34 -1 -39 -9 c-29 -7 -42 -6 -47 3 -6 9 -11 9 -22 0 -8 -7
-25 -12 -38 -11 -13 1 -39 -4 -57 -10 -28 -8 -33 -8 -28 4 6 16 -14 20 -29 6
-17 -14 -128 -32 -138 -22 -6 6 -19 6 -33 1 -13 -5 -32 -7 -41 -4 -13 4 -14 3
-5 -3 11 -8 11 -12 0 -20 -21 -17 -74 -42 -99 -47 -54 -10 -121 -50 -97 -58 8
-3 4 -12 -10 -26 -13 -13 -28 -20 -33 -16 -6 4 -14 2 -18 -3 -3 -5 -19 -6 -36
-2 -25 6 -26 7 -6 8 19 1 21 3 11 16 -10 12 -8 20 9 41 12 15 21 37 21 51 0
20 -3 22 -19 13 -22 -11 -38 -13 -28 -3 4 3 2 12 -4 19 -9 10 -7 15 5 20 9 3
16 17 16 30 0 26 -10 30 -27 13 -16 -16 -56 66 -43 91 16 31 12 32 -17 6 -30
-28 -40 -28 -24 1 30 56 38 81 29 98 -6 9 -8 25 -5 36 4 16 1 19 -13 14 -15
-5 -21 0 -26 20 -3 14 -1 31 5 39 9 10 7 15 -7 18 -21 6 -40 -12 -34 -32 3
-13 2 -13 -7 0 -7 10 -6 19 1 28 9 10 8 16 -3 24 -11 8 -10 9 4 4 15 -5 17 -2
12 15 -5 16 -4 19 6 14 9 -6 11 -3 6 8 -3 10 -2 17 3 17 20 0 9 19 -20 36 -21
13 -26 20 -17 26 9 6 9 8 -2 8 -11 0 -11 3 -1 15 7 8 9 15 4 15 -4 0 -3 5 4
12 18 18 14 30 -7 23 -17 -5 -19 -2 -17 20 2 15 9 31 17 37 11 7 11 11 2 15
-19 7 -16 33 5 50 15 13 15 14 -8 8 l-25 -6 25 21 c19 15 20 19 6 13 -16 -5
-18 -3 -12 13 5 10 9 25 9 32 0 6 5 12 10 12 5 0 4 7 -3 15 -8 9 -8 15 -2 15
6 0 9 13 7 30 -2 17 0 30 5 30 5 0 7 7 4 15 -4 8 -1 15 5 15 6 0 8 7 5 15 -4
9 0 15 7 15 11 0 11 2 1 9 -10 6 -10 10 3 21 8 7 15 19 15 27 0 16 70 138 94
166 9 9 16 21 16 27 0 5 8 14 18 19 9 6 14 11 10 11 -4 0 25 34 65 75 39 41
87 91 105 110 18 19 36 35 40 35 4 0 14 9 22 20 8 11 22 20 32 20 12 0 15 5
11 16 -5 14 -1 16 24 12 26 -3 29 -1 25 15 -4 17 0 19 40 16 39 -4 44 -2 40
14 -6 24 14 21 65 -8 23 -14 43 -22 43 -17 0 5 -12 15 -27 23 -43 22 -55 36
-38 42 7 3 15 3 17 -1 6 -14 69 -54 75 -48 9 9 -54 66 -74 66 -9 0 -14 3 -10
6 11 11 67 -7 67 -23 0 -10 6 -14 19 -10 15 4 19 0 16 -14 -2 -11 2 -19 8 -19
7 0 23 -3 36 -7 17 -4 22 -3 17 5 -4 7 -17 12 -29 12 -17 0 -19 2 -7 10 12 7
12 12 -4 29 -11 12 -25 21 -32 21 -7 0 -18 9 -24 20 -14 26 2 26 25 0z m441
-7 c-6 -6 -36 9 -36 18 0 5 9 4 20 -3 10 -7 18 -14 16 -15z m451 1 c-7 -7 -37
7 -37 17 0 6 9 5 21 -1 11 -7 19 -14 16 -16z m-276 -11 c13 -15 12 -15 -11 -3
-34 17 -36 20 -18 20 9 0 22 -7 29 -17z m2024 -3 c-3 -5 -14 -10 -23 -10 -15
0 -15 2 -2 10 20 13 33 13 25 0z m-975 -40 c0 -5 -4 -10 -10 -10 -5 0 -10 5
-10 10 0 6 5 10 10 10 6 0 10 -4 10 -10z m-160 -10 c0 -5 -4 -10 -10 -10 -5 0
-10 5 -10 10 0 6 5 10 10 10 6 0 10 -4 10 -10z m-1673 -16 c-3 -3 -12 -4 -19
-1 -8 3 -5 6 6 6 11 1 17 -2 13 -5z m2963 -268 c0 -2 -9 -6 -20 -9 -11 -3 -20
-1 -20 4 0 5 9 9 20 9 11 0 20 -2 20 -4z m-3512 -825 c11 -6 10 -10 -4 -15 -9
-3 -19 -4 -22 -1 -3 3 1 5 9 6 8 0 6 4 -6 9 -13 6 -15 9 -5 9 8 0 21 -3 28 -8z
m965 -438 c-7 -2 -21 -2 -30 0 -10 3 -4 5 12 5 17 0 24 -2 18 -5z m1732 -33
c10 -16 -12 -12 -29 6 -9 8 -16 18 -16 20 0 7 38 -15 45 -26z m-2192 -7 c-7
-2 -19 -2 -25 0 -7 3 -2 5 12 5 14 0 19 -2 13 -5z m84 1 c-3 -3 -12 -4 -19 -1
-8 3 -5 6 6 6 11 1 17 -2 13 -5z m683 -14 c0 -5 -7 -10 -16 -10 -8 0 -12 5 -9
10 3 6 10 10 16 10 5 0 9 -4 9 -10z m-858 -40 c-18 -11 -39 -20 -47 -20 -8 0
-33 -7 -55 -16 -23 -9 -43 -14 -46 -11 -9 9 53 37 83 37 15 1 39 7 53 15 38
22 49 18 12 -5z m-375 -32 c-3 -8 -6 -5 -6 6 -1 11 2 17 5 13 3 -3 4 -12 1
-19z m13 -33 c0 -8 -2 -15 -4 -15 -2 0 -6 7 -10 15 -3 8 -1 15 4 15 6 0 10 -7
10 -15z m279 10 c-3 -2 -23 -12 -44 -21 -34 -14 -37 -14 -26 -1 11 14 27 20
65 26 5 0 7 -1 5 -4z m1236 -115 c3 -5 1 -10 -4 -10 -6 0 -11 5 -11 10 0 6 2
10 4 10 3 0 8 -4 11 -10z m-1410 -50 c-3 -5 -11 -10 -16 -10 -6 0 -7 5 -4 10
3 6 11 10 16 10 6 0 7 -4 4 -10z m2645 -20 c0 -5 16 -12 35 -16 47 -8 44 -21
-7 -34 -24 -6 -49 -13 -56 -16 -8 -2 -19 -1 -25 3 -18 11 -57 12 -57 2 0 -6
-5 -7 -12 -2 -14 8 -19 9 -80 12 -27 1 -38 6 -38 16 0 11 -11 15 -37 15 -20 0
-34 3 -30 6 19 19 307 33 307 14z m417 -16 c-3 -3 -12 -4 -19 -1 -8 3 -5 6 6
6 11 1 17 -2 13 -5z m89 -23 c41 -19 76 -52 41 -38 -20 8 -22 -4 -4 -22 10
-11 10 -13 0 -7 -7 4 -13 2 -13 -3 0 -6 5 -11 11 -11 7 0 9 -9 6 -22 -3 -13 1
-32 9 -43 15 -19 15 -19 9 7 -7 26 -6 27 19 15 25 -11 26 -16 26 -93 0 -144
-34 -355 -73 -449 -11 -27 -34 -70 -51 -95 -21 -31 -24 -40 -10 -30 10 8 24
22 31 30 7 8 13 12 13 8 0 -14 -73 -89 -99 -103 -68 -34 -131 -47 -266 -53
-425 -20 -632 22 -756 154 -87 93 -209 367 -209 470 0 27 4 34 20 34 15 0 19
6 17 23 -2 20 3 22 43 23 73 2 80 3 80 19 0 8 2 15 4 15 2 0 12 3 21 6 15 6
16 4 3 -17 -7 -13 -19 -29 -27 -35 -21 -17 -3 -37 28 -30 14 3 20 3 14 0 -23
-10 -14 -33 15 -40 55 -12 57 -15 17 -30 -22 -7 -49 -14 -60 -14 -15 0 -17 -2
-6 -9 10 -6 12 -19 8 -41 -6 -28 -5 -30 9 -16 20 21 22 20 69 -9 43 -26 60
-31 50 -15 -3 6 -2 10 4 10 5 0 12 8 15 18 3 10 4 8 3 -7 -3 -35 26 -49 60
-30 16 9 47 22 71 29 25 8 38 16 31 21 -18 11 25 21 55 13 29 -7 31 -2 16 27
-9 17 -7 19 18 19 15 0 33 5 39 11 14 14 59 7 55 -9 -1 -6 5 -12 13 -12 8 0
15 3 15 8 0 4 13 13 30 20 26 12 32 11 57 -6 15 -11 46 -23 68 -27 22 -4 43
-11 46 -16 8 -14 39 0 39 18 0 10 6 12 20 8 11 -3 20 -2 20 3 0 6 -5 12 -12
14 -8 3 -8 9 -2 19 5 8 9 36 9 64 1 44 4 50 25 55 33 8 35 25 6 55 -14 14 -25
29 -25 33 0 4 -10 9 -22 12 -12 3 -24 11 -26 17 -7 19 42 26 81 13 25 -8 41
-8 55 -1 25 14 88 14 96 1 4 -7 -8 -8 -36 -4 -31 5 -40 4 -35 -4 4 -7 22 -12
40 -12 17 0 38 -6 44 -12 9 -9 15 -10 20 -2 7 12 47 12 58 1 11 -10 24 -8 24
3 0 6 -7 10 -15 10 -21 0 -19 18 5 32 18 12 18 13 -8 30 -23 15 -24 18 -7 18
11 0 39 -9 61 -19z m-407 -29 c-13 -21 -89 -27 -89 -6 0 9 10 11 37 7 26 -4
34 -3 29 5 -5 8 0 12 13 12 18 0 19 -3 10 -18z m-261 -15 c6 0 12 -5 12 -10 0
-5 -10 -7 -22 -3 -13 3 -31 6 -40 6 -10 0 -18 5 -18 11 0 7 10 9 28 4 15 -4
33 -8 40 -8z m66 -22 c11 -8 18 -17 15 -19 -7 -7 -49 13 -49 24 0 14 11 12 34
-5z m-620 -19 c-10 -8 -21 -12 -23 -10 -3 2 4 11 15 18 10 8 21 12 23 10 3 -2
-4 -11 -15 -18z m-2018 -18 c-1 -20 -9 -39 -20 -47 -14 -11 -15 -15 -5 -22 7
-4 10 -11 6 -15 -4 -4 -14 1 -22 12 -14 19 -14 19 -15 -1 0 -15 -2 -17 -9 -6
-7 11 -10 10 -14 -5 -2 -10 -5 7 -6 38 -1 55 0 58 27 64 15 3 32 7 37 9 20 7
22 4 21 -27z m1984 -12 c0 -3 -4 -8 -10 -11 -5 -3 -10 -1 -10 4 0 6 5 11 10
11 6 0 10 -2 10 -4z m524 -31 c-10 -25 -54 -45 -54 -25 0 6 7 10 15 10 9 0 18
7 21 15 4 8 10 15 15 15 4 0 6 -7 3 -15z m-558 -22 c-10 -10 -19 5 -10 18 6
11 8 11 12 0 2 -7 1 -15 -2 -18z m702 -11 c22 -17 22 -19 5 -34 -10 -8 -41
-20 -70 -25 l-52 -10 19 38 c12 23 29 39 42 42 13 2 25 5 28 5 3 1 15 -6 28
-16z m-2761 -69 c-2 -16 -4 -5 -4 22 0 28 2 40 4 28 2 -13 2 -35 0 -50z m2040
20 c-3 -10 -5 -4 -5 12 0 17 2 24 5 18 2 -7 2 -21 0 -30z m-2230 -45 c-3 -8
-6 -5 -6 6 -1 11 2 17 5 13 3 -3 4 -12 1 -19z m200 -75 c-3 -10 -5 -2 -5 17 0
19 2 27 5 18 2 -10 2 -26 0 -35z m2938 37 c3 -5 1 -10 -4 -10 -6 0 -11 5 -11
10 0 6 2 10 4 10 3 0 8 -4 11 -10z m-2890 -71 c-4 -10 1 -21 11 -27 11 -6 13
-11 5 -16 -6 -4 -11 -17 -12 -29 -1 -20 -1 -20 -8 3 -4 14 -11 48 -14 75 -6
46 -5 48 8 31 8 -11 13 -28 10 -37z m-32 -44 c4 -34 3 -42 -3 -25 -8 25 -13
87 -6 79 2 -2 6 -26 9 -54z m64 33 c-3 -8 -6 -5 -6 6 -1 11 2 17 5 13 3 -3 4
-12 1 -19z m2243 -10 c0 -5 -7 -8 -15 -8 -15 0 -20 21 -8 33 7 7 23 -11 23
-25z m-2264 -225 c-5 -5 -36 110 -35 133 0 10 9 -14 20 -55 10 -41 17 -76 15
-78z m417 119 c6 -8 20 -11 41 -7 25 5 50 -1 100 -24 70 -32 104 -40 171 -44
36 -3 40 -6 43 -31 2 -16 -2 -32 -9 -37 -24 -15 1 -23 63 -21 64 2 204 34 247
56 50 26 71 29 71 11 0 -13 6 -16 24 -13 18 4 27 -1 35 -20 10 -20 9 -23 -3
-19 -10 4 -13 1 -9 -9 7 -19 22 -18 47 4 21 17 21 17 2 -5 -13 -16 -15 -23 -6
-23 7 0 19 8 27 18 22 26 4 -8 -24 -45 -13 -18 -29 -33 -35 -33 -6 0 -4 8 5
18 22 24 21 38 -2 38 -11 0 -17 -4 -15 -8 3 -4 -4 -16 -16 -28 -11 -11 -17
-20 -13 -20 4 0 1 -6 -5 -12 -10 -10 -15 -10 -22 2 -8 13 -11 12 -24 -5 -9
-11 -14 -25 -11 -32 2 -6 -3 -14 -12 -17 -9 -4 -13 -9 -10 -13 4 -3 21 5 39
19 18 14 44 31 58 37 22 12 22 10 -5 -14 -59 -53 -144 -82 -315 -105 -133 -19
-390 -1 -390 27 0 16 -73 30 -78 14 -2 -6 -9 -11 -15 -11 -8 0 -7 4 1 12 14
14 16 28 3 28 -17 0 -63 49 -57 59 4 5 -8 20 -25 33 -17 13 -37 35 -45 50 -8
15 -20 25 -27 22 -9 -3 -12 6 -9 36 2 23 6 39 9 36 10 -10 33 23 27 38 -5 12
3 19 25 27 17 6 31 14 31 18 0 13 105 6 113 -7z m928 -23 c-5 -13 -10 -19 -10
-12 -1 15 10 45 15 40 3 -2 0 -15 -5 -28z m-40 -49 c5 0 9 8 10 18 0 11 2 12
6 4 6 -15 -16 -72 -28 -72 -5 0 -6 6 -3 14 3 8 1 23 -5 34 -6 11 -7 23 -3 27
4 4 8 0 10 -9 2 -9 8 -16 13 -16z m-1221 -32 c0 -10 -4 -18 -10 -18 -5 0 -10
15 -10 33 0 24 3 28 10 17 5 -8 10 -23 10 -32z m0 -145 c17 -16 55 -43 85 -58
55 -28 76 -53 30 -35 -80 31 -133 77 -169 148 -14 28 -26 55 -26 59 1 4 12
-12 25 -38 13 -25 37 -59 55 -76z m10 62 c0 -18 7 -41 16 -50 9 -9 14 -18 11
-21 -2 -3 -14 7 -26 22 -21 27 -30 101 -11 89 6 -3 10 -21 10 -40z m17 13 c-3
-8 -6 -5 -6 6 -1 11 2 17 5 13 3 -3 4 -12 1 -19z m1023 -92 c0 -2 -7 -9 -15
-16 -13 -11 -14 -10 -9 4 5 14 24 23 24 12z m36 -131 c-10 -7 -15 -19 -11 -25
5 -9 1 -10 -14 -5 -12 3 -21 3 -20 -2 1 -4 1 -17 0 -28 -1 -17 -3 -18 -11 -5
-7 11 -10 12 -10 2 0 -9 -7 -11 -22 -7 -16 4 -19 4 -9 -3 19 -14 6 -29 -30
-37 -24 -5 -30 -11 -26 -26 4 -15 -3 -20 -37 -26 -43 -9 -41 -7 -45 -75 -1
-10 -8 -18 -16 -18 -8 0 -19 -9 -25 -19 -13 -26 -13 -31 5 -31 9 0 12 -6 8
-16 -4 -11 -8 -12 -13 -4 -5 8 -10 9 -14 2 -3 -6 -2 -13 4 -17 13 -8 13 -45 0
-45 -5 0 -10 7 -10 15 0 13 -2 14 -14 3 -8 -7 -10 -14 -5 -16 16 -6 10 -19
-11 -25 -11 -3 -20 -13 -20 -22 0 -10 -16 -35 -35 -56 -21 -23 -35 -33 -35
-24 0 26 -17 16 -23 -14 -4 -19 -15 -32 -36 -40 -16 -7 -32 -19 -35 -27 -3 -8
-13 -14 -23 -14 -17 1 -17 1 -1 14 20 15 5 38 -18 29 -8 -3 -14 0 -14 6 0 6
-6 11 -13 11 -22 0 -38 22 -26 36 14 17 7 60 -9 56 -16 -3 -16 40 0 56 9 9 9
15 0 24 -10 10 -15 10 -22 -2 -8 -13 -10 -12 -10 3 0 11 -10 20 -30 24 -19 3
-30 12 -30 23 0 9 -11 27 -24 39 -15 14 -22 30 -19 42 3 12 -1 21 -12 25 -16
7 -16 8 -2 19 17 12 18 45 2 58 -5 4 1 7 15 5 16 -2 25 2 25 12 0 8 11 17 25
21 24 7 24 7 3 8 -13 1 -23 4 -23 9 0 4 87 7 193 8 135 0 220 5 285 17 94 17
204 49 232 67 23 15 28 11 6 -5z m-1026 -11 l25 -15 -25 7 c-14 3 -29 10 -34
15 -16 14 6 10 34 -7z m75 -20 c13 -5 14 -8 3 -15 -18 -12 -31 -11 -23 1 8 13
-11 13 -38 -1 -21 -10 -21 -10 -3 5 22 17 35 19 61 10z m-125 -24 c0 -5 -2
-10 -4 -10 -3 0 -8 5 -11 10 -3 6 -1 10 4 10 6 0 11 -4 11 -10z m285 -10 c39
-8 39 -8 -15 -8 -30 -1 -68 5 -85 13 -30 14 -30 14 15 8 25 -3 63 -9 85 -13z
m65 -20 c0 -5 -4 -10 -10 -10 -5 0 -10 5 -10 10 0 6 5 10 10 10 6 0 10 -4 10
-10z m540 -100 c0 -5 -9 -10 -20 -10 -11 0 -20 5 -20 10 0 6 9 10 20 10 11 0
20 -4 20 -10z m-603 -82 c-3 -8 -6 -5 -6 6 -1 11 2 17 5 13 3 -3 4 -12 1 -19z
m-250 -140 c-3 -8 -6 -5 -6 6 -1 11 2 17 5 13 3 -3 4 -12 1 -19z m443 -153
c10 -12 9 -15 -8 -15 -11 0 -22 7 -26 15 -3 9 0 15 8 15 7 0 19 -7 26 -15z
m53 -75 c4 -17 2 -18 -14 -9 -11 5 -17 14 -14 20 10 15 22 10 28 -11z m1934
-142 c-3 -8 -6 -5 -6 6 -1 11 2 17 5 13 3 -3 4 -12 1 -19z m-2353 -84 c3 -8 2
-12 -4 -9 -6 3 -10 10 -10 16 0 14 7 11 14 -7z m1376 -22 c0 -14 7 -17 46 -14
37 3 50 0 69 -18 22 -20 25 -21 31 -6 8 20 34 21 34 2 0 -8 5 -18 10 -21 14
-9 52 4 45 16 -4 5 9 9 27 9 19 0 39 5 45 11 14 14 240 13 303 0 91 -20 105
-24 117 -33 7 -6 19 -5 32 1 13 7 22 8 26 1 9 -15 25 -12 25 4 0 19 67 -13 93
-43 20 -25 21 -28 6 -44 -9 -9 -46 -10 -153 -4 -170 11 -227 11 -286 5 -25 -3
-51 -6 -58 -7 -8 0 -10 -6 -6 -13 6 -10 5 -10 -8 0 -9 7 -27 10 -47 6 -29 -6
-31 -5 -31 25 0 25 4 31 23 31 20 1 57 21 57 32 0 8 -154 4 -166 -4 -6 -4 -32
-5 -58 -3 -35 4 -48 1 -52 -10 -7 -18 -23 -19 -61 -4 -21 8 -24 12 -13 19 21
13 9 20 -41 21 -83 2 -101 17 -51 42 37 20 42 20 42 -1z m293 -149 c-7 -2 -19
-2 -25 0 -7 3 -2 5 12 5 14 0 19 -2 13 -5z m-73 -144 c0 -23 -15 -32 -40 -24
-18 6 -18 8 -5 21 8 9 15 25 15 37 1 22 1 22 15 3 8 -11 15 -28 15 -37z m-209
-2 c-13 -13 -15 1 -4 30 7 17 8 17 11 -1 2 -10 -1 -23 -7 -29z m-638 -4 c-7
-2 -19 -2 -25 0 -7 3 -2 5 12 5 14 0 19 -2 13 -5z m714 -65 c-3 -7 -5 -2 -5
12 0 14 2 19 5 13 2 -7 2 -19 0 -25z m952 -247 c-15 -5 -22 6 -14 19 6 9 10 9
16 -1 5 -8 4 -15 -2 -18z m145 -177 c6 -15 4 -15 -11 -3 -10 7 -20 15 -22 16
-2 2 3 3 11 3 9 0 19 -7 22 -16z m41 5 c11 -17 2 -18 -19 -3 -17 12 -17 14 -4
14 9 0 20 -5 23 -11z m-1679 -114 c-3 -8 -10 -15 -15 -15 -5 0 -4 11 2 25 12
25 23 16 13 -10z m124 -115 c0 -5 -7 -10 -16 -10 -8 0 -12 5 -9 10 3 6 10 10
16 10 5 0 9 -4 9 -10z m1120 -40 c0 -5 -7 -10 -15 -10 -8 0 -15 5 -15 10 0 6
7 10 15 10 8 0 15 -4 15 -10z m-236 -115 c3 -8 1 -15 -4 -15 -6 0 -10 7 -10
15 0 8 2 15 4 15 2 0 6 -7 10 -15z m-329 -5 c3 -5 1 -10 -4 -10 -6 0 -11 5
-11 10 0 6 2 10 4 10 3 0 8 -4 11 -10z m45 -40 c0 -5 -4 -10 -10 -10 -5 0 -10
5 -10 10 0 6 5 10 10 10 6 0 10 -4 10 -10z m-1003 -582 c-3 -7 -5 -2 -5 12 0
14 2 19 5 13 2 -7 2 -19 0 -25z m8 -38 c-3 -5 -10 -10 -16 -10 -5 0 -9 5 -9
10 0 6 7 10 16 10 8 0 12 -4 9 -10z m5 -87 c0 -45 -8 -39 -16 11 -4 26 -2 36
5 31 6 -3 11 -22 11 -42z m33 -64 c27 0 29 -2 12 -9 -37 -16 -55 -12 -54 13 0
12 3 16 6 10 2 -7 19 -13 36 -14z m4 -121 c-3 -8 -6 -5 -6 6 -1 11 2 17 5 13
3 -3 4 -12 1 -19z m83 -113 c12 -15 6 -35 -11 -35 -5 0 -9 5 -9 11 0 7 -8 18
-17 25 -17 12 -17 13 3 14 12 0 27 -7 34 -15z m40 -56 c0 -11 -4 -18 -10 -14
-5 3 -7 12 -3 20 7 21 13 19 13 -6z m464 -295 c9 -3 16 -15 16 -27 0 -19 -1
-20 -20 -2 -30 27 -28 41 4 29z m106 -123 c0 -9 -51 -31 -72 -31 -12 0 -18 7
-18 23 0 20 4 22 45 19 25 -2 45 -7 45 -11z m550 -406 c-7 -8 -16 -15 -21 -15
-5 0 -1 8 9 18 20 22 31 19 12 -3z"/>
<path d="M2646 7466 c10 -8 21 -12 24 -10 5 6 -21 24 -34 24 -6 0 -1 -6 10
-14z"/>
<path d="M1868 7373 c6 -2 18 -2 25 0 6 3 1 5 -13 5 -14 0 -19 -2 -12 -5z"/>
<path d="M1410 6259 c0 -11 5 -17 10 -14 6 3 10 13 10 21 0 8 -4 14 -10 14 -5
0 -10 -9 -10 -21z"/>
<path d="M2335 5960 c-3 -5 -1 -10 4 -10 6 0 11 5 11 10 0 6 -2 10 -4 10 -3 0
-8 -4 -11 -10z"/>
<path d="M2685 5920 c3 -5 11 -10 16 -10 6 0 7 5 4 10 -3 6 -11 10 -16 10 -6
0 -7 -4 -4 -10z"/>
<path d="M2438 5913 c7 -3 16 -2 19 1 4 3 -2 6 -13 5 -11 0 -14 -3 -6 -6z"/>
<path d="M4150 5900 c0 -5 7 -10 16 -10 8 0 12 5 9 10 -3 6 -10 10 -16 10 -5
0 -9 -4 -9 -10z"/>
<path d="M1555 5891 c-3 -5 -1 -12 5 -16 5 -3 10 1 10 9 0 18 -6 21 -15 7z"/>
<path d="M2760 5850 c0 -5 7 -10 15 -10 8 0 15 5 15 10 0 6 -7 10 -15 10 -8 0
-15 -4 -15 -10z"/>
<path d="M2800 5850 c0 -5 5 -10 11 -10 5 0 7 5 4 10 -3 6 -8 10 -11 10 -2 0
-4 -4 -4 -10z"/>
<path d="M1520 5744 c0 -14 3 -14 15 -4 8 7 15 14 15 16 0 2 -7 4 -15 4 -8 0
-15 -7 -15 -16z"/>
<path d="M3150 5682 c0 -5 7 -13 16 -16 10 -4 14 -1 12 6 -5 15 -28 23 -28 10z"/>
<path d="M3980 5556 c0 -2 7 -7 16 -10 8 -3 12 -2 9 4 -6 10 -25 14 -25 6z"/>
<path d="M4636 5452 c-3 -5 1 -9 9 -9 8 0 12 4 9 9 -3 4 -7 8 -9 8 -2 0 -6 -4
-9 -8z"/>
<path d="M4538 5433 c7 -3 16 -2 19 1 4 3 -2 6 -13 5 -11 0 -14 -3 -6 -6z"/>
<path d="M4711 5324 c0 -11 3 -14 6 -6 3 7 2 16 -1 19 -3 4 -6 -2 -5 -13z"/>
<path d="M3920 5170 c0 -5 5 -10 10 -10 6 0 10 5 10 10 0 6 -4 10 -10 10 -5 0
-10 -4 -10 -10z"/>
<path d="M4030 5345 c0 -8 4 -15 8 -15 5 0 9 7 9 15 0 8 -4 15 -9 15 -4 0 -8
-7 -8 -15z"/>
<path d="M1870 4470 c0 -5 5 -10 10 -10 6 0 10 5 10 10 0 6 -4 10 -10 10 -5 0
-10 -4 -10 -10z"/>
<path d="M1983 4243 c-18 -7 -16 -23 2 -23 8 0 15 7 15 15 0 8 -1 15 -2 14 -2
0 -9 -3 -15 -6z"/>
<path d="M1945 4200 c-3 -5 1 -10 9 -10 9 0 16 5 16 10 0 6 -4 10 -9 10 -6 0
-13 -4 -16 -10z"/>
<path d="M2115 4150 c3 -5 8 -10 11 -10 2 0 4 5 4 10 0 6 -5 10 -11 10 -5 0
-7 -4 -4 -10z"/>
<path d="M2824 8957 c33 -6 61 -18 64 -24 5 -18 19 -16 19 2 0 18 -16 24 -85
30 l-57 4 59 -12z"/>
<path d="M2848 8923 c6 -2 18 -2 25 0 6 3 1 5 -13 5 -14 0 -19 -2 -12 -5z"/>
<path d="M4088 8803 c6 -2 18 -2 25 0 6 3 1 5 -13 5 -14 0 -19 -2 -12 -5z"/>
<path d="M1303 4793 c-15 -5 -17 -23 -4 -23 5 0 11 7 15 15 3 8 4 15 3 14 -1
0 -8 -3 -14 -6z"/>
<path d="M1261 4693 c-1 -6 15 -40 35 -75 52 -92 94 -133 94 -90 -1 16 -30 64
-30 48 0 -10 -85 94 -93 114 -3 8 -6 10 -6 3z"/>
<path d="M3548 4526 c16 -25 30 -39 34 -33 7 12 -4 38 -28 61 -30 30 -33 16
-6 -28z"/>
<path d="M2968 4213 c7 -3 16 -2 19 1 4 3 -2 6 -13 5 -11 0 -14 -3 -6 -6z"/>
<path d="M3020 4141 c0 -6 5 -13 10 -16 6 -3 10 1 10 9 0 9 -4 16 -10 16 -5 0
-10 -4 -10 -9z"/>
<path d="M3530 4106 c0 -8 4 -17 9 -20 10 -7 23 19 14 28 -11 11 -23 6 -23 -8z"/>
<path d="M4090 3570 c0 -5 5 -10 10 -10 6 0 10 5 10 10 0 6 -4 10 -10 10 -5 0
-10 -4 -10 -10z"/>
<path d="M2955 3370 c-3 -5 1 -10 9 -10 8 0 18 5 21 10 3 6 -1 10 -9 10 -8 0
-18 -4 -21 -10z"/>
<path d="M2480 3290 c0 -5 5 -10 11 -10 5 0 7 5 4 10 -3 6 -8 10 -11 10 -2 0
-4 -4 -4 -10z"/>
<path d="M4030 3233 c0 -5 11 -13 25 -20 14 -6 25 -7 25 -3 0 4 9 6 20 3 11
-3 20 -1 20 5 0 14 -28 23 -35 12 -4 -7 -13 -6 -25 0 -22 12 -30 13 -30 3z"/>
<path d="M2466 3182 c-2 -4 2 -16 10 -27 8 -10 14 -16 14 -13 0 4 3 13 6 21 5
15 -22 32 -30 19z"/>
<path d="M2519 3121 c23 -21 61 -29 61 -12 0 5 -11 12 -24 15 -13 3 -32 9 -43
12 -14 4 -13 1 6 -15z"/>
<path d="M2425 3110 c3 -5 11 -10 16 -10 6 0 7 5 4 10 -3 6 -11 10 -16 10 -6
0 -7 -4 -4 -10z"/>
<path d="M3832 3088 c5 -15 28 -23 28 -10 0 5 -7 13 -16 16 -10 4 -14 1 -12
-6z"/>
<path d="M4213 3063 c-3 -10 -8 -22 -11 -27 -3 -5 1 -6 8 -1 8 5 18 1 27 -10
7 -11 13 -17 14 -14 0 2 2 12 4 22 2 9 -1 15 -6 11 -5 -3 -9 4 -9 15 0 26 -18
28 -27 4z"/>
<path d="M4802 2940 c-19 -4 -12 -11 45 -46 40 -23 74 -51 81 -68 8 -15 17
-74 20 -129 l7 -102 6 75 c4 41 3 106 -1 144 -7 58 -13 74 -37 96 -29 28 -80
40 -121 30z"/>
<path d="M4907 2443 c-3 -10 -8 -28 -12 -40 -3 -13 -2 -23 3 -23 6 0 12 17 14
38 6 41 3 54 -5 25z"/>
<path d="M4636 1885 c-9 -26 -7 -32 5 -12 6 10 9 21 6 23 -2 3 -7 -2 -11 -11z"/>
<path d="M4580 1809 c0 -5 5 -7 10 -4 6 3 10 8 10 11 0 2 -4 4 -10 4 -5 0 -10
-5 -10 -11z"/>
<path d="M2585 870 c3 -5 13 -10 21 -10 8 0 14 5 14 10 0 6 -9 10 -21 10 -11
0 -17 -4 -14 -10z"/>
<path d="M3360 560 c0 -5 9 -10 20 -10 11 0 20 5 20 10 0 6 -9 10 -20 10 -11
0 -20 -4 -20 -10z"/>
<path d="M2450 309 c0 -5 5 -7 10 -4 6 3 10 8 10 11 0 2 -4 4 -10 4 -5 0 -10
-5 -10 -11z"/>
<path d="M2495 300 c-8 -13 24 -106 41 -121 8 -6 14 -18 14 -26 0 -11 4 -11
21 -3 11 6 25 9 32 6 9 -3 9 -5 0 -5 -7 -1 -13 -6 -13 -12 0 -7 10 -9 25 -5
18 5 25 2 25 -9 0 -8 4 -15 9 -15 5 0 17 -7 26 -16 20 -20 129 -32 140 -15 4
8 2 11 -6 10 -23 -4 -69 20 -69 35 0 7 10 16 23 20 22 5 22 6 2 19 -11 7 -31
14 -44 15 -13 0 -32 9 -42 19 -33 32 -45 40 -82 52 -20 7 -37 17 -37 22 0 5
-7 9 -15 9 -9 0 -18 7 -21 15 -7 17 -20 20 -29 5z"/>
<path d="M2815 10 c-3 -5 -1 -10 4 -10 6 0 11 5 11 10 0 6 -2 10 -4 10 -3 0
-8 -4 -11 -10z"/>
</g>
</svg>
